<svg xmlns="http://www.w3.org/2000/svg" xmlns:xlink="http://www.w3.org/1999/xlink" width="80" height="80" viewBox="0 0 80 80">
    <defs>
        <path id="a" d="M38.86 76.659c-20.986 0-38-17.013-38-38s17.014-38 38-38c20.987 0 38 17.013 38 38s-17.013 38-38 38z"/>
    </defs>
    <g fill="none" fill-rule="evenodd">
        <path fill="#DADADA" fill-rule="nonzero" d="M40 80c22.091 0 40-17.909 40-40S62.091 0 40 0 0 17.909 0 40s17.909 40 40 40zm0-2C19.013 78 2 60.987 2 40S19.013 2 40 2s38 17.013 38 38-17.013 38-38 38z"/>
        <g transform="translate(1.14 1.341)">
            <mask id="b" fill="#fff">
                <use xlink:href="#a"/>
            </mask>
            <path fill="#DADADA" fill-rule="nonzero" d="M40.806 80.866L72.29 77s-.372-15.721-3.784-17.313c-2.152-1.01-8.844-2.463-13.309-5.054a13.526 13.526 0 0 0-4.396-4.283l-1.98-4.161s2.547-3.658 4.241-10.175c0 0 1.649 1.675 2.238-1.43.521-2.759.94-5.859-.801-5.535a.708.708 0 0 0 0-.072.803.803 0 0 0 .366-.559 3.825 3.825 0 0 0-.263-1.44 1.418 1.418 0 0 0-.252-.559v-.436a.599.599 0 0 0 .263-.268 3.022 3.022 0 0 0-.183-2.692.427.427 0 0 0 .252-.301c.11-.12.18-.27.2-.43a.748.748 0 0 0-.463-.704.662.662 0 0 0-.075-1.055.568.568 0 0 0-.286-.252v-.039a.549.549 0 0 0 .057-.782 1.105 1.105 0 0 0-.234-.19 2.008 2.008 0 0 0-.098-.245.765.765 0 0 0 .24-.687v-.023a.765.765 0 0 0-.652-.603h-.034a1.646 1.646 0 0 1-.132-.128l-.114-.112a.673.673 0 0 0 .492-.614c.086-.983-.761-1.854-1.443-2.469a2.602 2.602 0 0 0-.704-.474.797.797 0 0 0 .575-.377.76.76 0 0 0 .055-.673 1.3 1.3 0 0 0-.315-.453.636.636 0 0 0 .487-.76 2.024 2.024 0 0 0-1.145-1.34c-.173-.725-.88-1.207-1.637-1.116l-.035-.207a.743.743 0 0 0-.503-.559 3.383 3.383 0 0 0-1.065-.089.546.546 0 0 0 .006-.493.57.57 0 0 0-.395-.306c-.427-.1-.869-.129-1.306-.083a.682.682 0 0 0-.572-.626 3.48 3.48 0 0 0-1.666.19.857.857 0 0 0-1.013-.38 7.54 7.54 0 0 0-.967.408.57.57 0 0 0-.24-.195c-.653-.285-1.34.195-1.913.686a.879.879 0 0 0-.257-.413.554.554 0 0 0 .143-.262c.051-.218-.172-.514-.418-.363-.377.105-.76.19-1.145.257a9.859 9.859 0 0 0-2.404 1.373l-.04.034a.375.375 0 0 0-.178 0c.195-.179.4-.357.607-.53a.368.368 0 0 0 .09-.446.386.386 0 0 0-.416-.202c-1.288.111-2.153 1.401-2.862 2.317l-.126.185-.138.134c.098-.196.195-.391.286-.598.19-.441-.492-.748-.75-.363l-.085.128a3.87 3.87 0 0 0-1.546 1.559 8.62 8.62 0 0 0-.824.983c-.354.474-.666.976-.933 1.502l-.098.095a.457.457 0 0 0-.326.346l-.195.218a4.34 4.34 0 0 0-1.288 3.066v.039c-.254.112-.457.31-.572.558a.513.513 0 0 0 0 .425c-.658.603-1.214 1.675-.813 2.53a.432.432 0 0 0 .063.078.608.608 0 0 0-.069.631 3.552 3.552 0 0 0-.234.363 2.732 2.732 0 0 0-.2 2.413c-.293.194-.477.51-.499.854a.503.503 0 0 0 .367.525c-.527.91-.762 1.932-.218 2.647-.29.383-.367.88-.206 1.33.013.025.029.05.046.072-1.58-.134-1.18 2.876-.67 5.557.573 3.094 2.233 1.43 2.233 1.43 1.717 6.517 4.241 10.175 4.241 10.175l-1.974 4.16a13.54 13.54 0 0 0-4.506 4.267c-4.465 2.592-11.14 4.044-13.292 5.055-3.434 1.602-3.72 17.312-3.72 17.312l33.945 3.882z" mask="url(#b)"/>
        </g>
    </g>
</svg>
