<svg xmlns="http://www.w3.org/2000/svg" xmlns:xlink="http://www.w3.org/1999/xlink" width="150" height="150" viewBox="0 0 150 150">
    <defs>
        <circle id="a" cx="7.563" cy="7.563" r="7.563"/>
        <circle id="c" cx="7.563" cy="7.563" r="7.563"/>
        <circle id="e" cx="7.563" cy="7.563" r="7.563"/>
        <circle id="g" cx="7.563" cy="7.563" r="7.563"/>
        <circle id="i" cx="7.563" cy="7.563" r="7.563"/>
        <circle id="k" cx="7.563" cy="7.563" r="7.563"/>
        <circle id="m" cx="7.563" cy="7.563" r="7.563"/>
        <circle id="o" cx="7.563" cy="7.563" r="7.563"/>
        <circle id="q" cx="7.563" cy="7.563" r="7.563"/>
        <circle id="s" cx="7.563" cy="7.563" r="7.563"/>
        <circle id="u" cx="7.563" cy="7.563" r="7.563"/>
        <circle id="w" cx="7.563" cy="7.563" r="7.563"/>
        <circle id="y" cx="7.563" cy="7.563" r="7.563"/>
        <circle id="A" cx="7.563" cy="7.563" r="7.563"/>
        <circle id="C" cx="7.563" cy="7.563" r="7.563"/>
        <circle id="E" cx="7.563" cy="7.563" r="7.563"/>
        <circle id="G" cx="7.563" cy="7.563" r="7.563"/>
        <circle id="I" cx="7.563" cy="7.563" r="7.563"/>
        <circle id="K" cx="7.563" cy="7.563" r="7.563"/>
        <circle id="M" cx="7.563" cy="7.563" r="7.563"/>
        <circle id="O" cx="7.563" cy="7.563" r="7.563"/>
        <circle id="Q" cx="7.563" cy="7.563" r="7.563"/>
        <circle id="S" cx="11.021" cy="11.021" r="11.021"/>
        <circle id="U" cx="11.021" cy="11.021" r="11.021"/>
        <circle id="W" cx="11.021" cy="11.021" r="11.021"/>
        <circle id="Y" cx="11.021" cy="11.021" r="11.021"/>
        <circle id="aa" cx="11.021" cy="11.021" r="11.021"/>
        <circle id="ac" cx="11.021" cy="11.021" r="11.021"/>
        <circle id="ae" cx="11.021" cy="11.021" r="11.021"/>
        <circle id="ag" cx="11.021" cy="11.021" r="11.021"/>
        <circle id="ai" cx="11.021" cy="11.021" r="11.021"/>
        <circle id="ak" cx="11.021" cy="11.021" r="11.021"/>
        <circle id="am" cx="11.021" cy="11.021" r="11.021"/>
        <circle id="ao" cx="74" cy="74" r="74"/>
        <path id="aq" d="M23.006 28.774c-7.301 4.145-16.581 1.595-20.737-5.698C-1.863 15.748.664 6.443 7.997 2.32a15.2 15.2 0 0 1 20.737 5.69c4.16 7.3 1.574 16.606-5.728 20.764z"/>
        <path id="as" d="M23.006 28.774c-7.301 4.145-16.581 1.595-20.737-5.698C-1.863 15.748.664 6.443 7.997 2.32a15.2 15.2 0 0 1 20.737 5.69c4.16 7.3 1.574 16.606-5.728 20.764z"/>
        <path id="au" d="M23.006 28.774c-7.301 4.145-16.581 1.595-20.737-5.698C-1.863 15.748.664 6.443 7.997 2.32a15.2 15.2 0 0 1 20.737 5.69c4.16 7.3 1.574 16.606-5.728 20.764z"/>
        <path id="aw" d="M23.006 28.774c-7.301 4.145-16.581 1.595-20.737-5.698C-1.863 15.748.664 6.443 7.997 2.32a15.2 15.2 0 0 1 20.737 5.69c4.16 7.3 1.574 16.606-5.728 20.764z"/>
    </defs>
    <g fill="none" fill-rule="evenodd">
        <circle cx="75" cy="75" r="74" fill="#1B99E5" fill-opacity=".1" fill-rule="nonzero" stroke="#1B99E5" stroke-width="2"/>
        <g transform="translate(2 34.565)">
            <ellipse cx="14.348" cy="15.87" fill="#D8D8D8" fill-rule="nonzero" rx="7.826" ry="7.609"/>
            <rect width="50" height="69" y=".13" fill="#F3F4F4" fill-rule="nonzero" rx="3"/>
            <circle cx="7.563" cy="7.563" r="7.563" fill="#A5CFE9" fill-rule="nonzero" transform="translate(6.957 8.26)"/>
            <g transform="translate(6.957 8.26)">
                <mask id="b" fill="#fff">
                    <use xlink:href="#a"/>
                </mask>
                <path fill="#FDA57D" fill-rule="nonzero" d="M4.596 10.445s-1.802.146-1.325 3.437c.247.237.539.422.858.546l1.014-3.432-.547-.551z" mask="url(#b)"/>
            </g>
            <g transform="translate(6.957 8.26)">
                <mask id="d" fill="#fff">
                    <use xlink:href="#c"/>
                </mask>
                <path fill="#FDA57D" fill-rule="nonzero" d="M10.445 10.445s1.802.146 1.325 3.437a2.59 2.59 0 0 1-.858.546l-1.01-3.442.543-.541z" mask="url(#d)"/>
            </g>
            <g transform="translate(6.957 8.26)">
                <mask id="f" fill="#fff">
                    <use xlink:href="#e"/>
                </mask>
                <path fill="#333" fill-rule="nonzero" d="M4.468 6.063c-.298.299-.936 1.78-1.343 1.492-.157-.052 4.649 3.103 8.952 0-.746-.447-.968-.756-1.492-1.492H4.468z" mask="url(#f)"/>
            </g>
            <g transform="translate(6.957 8.26)">
                <mask id="h" fill="#fff">
                    <use xlink:href="#g"/>
                </mask>
                <circle cx="7.569" cy="4.829" r="3.353" fill="#333" fill-rule="nonzero" mask="url(#h)"/>
            </g>
            <g transform="translate(6.957 8.26)">
                <mask id="j" fill="#fff">
                    <use xlink:href="#i"/>
                </mask>
                <path fill="#FFDA46" fill-rule="nonzero" d="M10.445 10.445H4.596l-.546 2.339s-.321 1.083.078 1.56c.399.476 4.124 1.56 6.862.077a3.051 3.051 0 0 0 .077-1.95 50.644 50.644 0 0 0-.622-2.026z" mask="url(#j)"/>
            </g>
            <g transform="translate(6.957 8.26)">
                <mask id="l" fill="#fff">
                    <use xlink:href="#k"/>
                </mask>
                <circle cx="7.569" cy="5.557" r="3.353" fill="#FDA57D" fill-rule="nonzero" mask="url(#l)"/>
            </g>
            <g transform="translate(6.957 8.26)">
                <mask id="n" fill="#fff">
                    <use xlink:href="#m"/>
                </mask>
                <path fill="#FDA57D" fill-rule="nonzero" d="M6.39 8.416h2.34v2.156c0 .49-.397.886-.886.886h-.569a.886.886 0 0 1-.886-.886V8.416h.002z" mask="url(#n)"/>
            </g>
            <g transform="translate(6.957 8.26)">
                <mask id="p" fill="#fff">
                    <use xlink:href="#o"/>
                </mask>
                <path fill="#000" fill-rule="nonzero" d="M6.395 8.748c.754.28 1.584.28 2.339 0v-.287h-2.34v.287z" mask="url(#p)" opacity=".1"/>
            </g>
            <g transform="translate(6.957 8.26)">
                <mask id="r" fill="#fff">
                    <use xlink:href="#q"/>
                </mask>
                <path fill="#333" fill-rule="nonzero" d="M4.362 4.285h6.395s-.547-2.583-2.963-2.417c-2.417.166-3.432 2.417-3.432 2.417z" mask="url(#r)"/>
            </g>
            <g transform="translate(6.957 8.26)">
                <mask id="t" fill="#fff">
                    <use xlink:href="#s"/>
                </mask>
                <ellipse cx="4.286" cy="5.415" fill="#FDA57D" fill-rule="nonzero" mask="url(#t)" rx="1" ry="1"/>
            </g>
            <g transform="translate(6.957 8.26)">
                <mask id="v" fill="#fff">
                    <use xlink:href="#u"/>
                </mask>
                <ellipse cx="10.836" cy="5.415" fill="#FDA57D" fill-rule="nonzero" mask="url(#v)" rx="1" ry="1"/>
            </g>
            <rect width="36.087" height="2.174" x="6.522" y="30" fill="#CFD2D3" fill-rule="nonzero" rx="1.087"/>
            <rect width="26.522" height="2.174" x="6.522" y="35.652" fill="#CFD2D3" fill-rule="nonzero" rx="1.087"/>
            <rect width="34.348" height="2.174" x="6.522" y="40.87" fill="#CFD2D3" fill-rule="nonzero" rx="1.087"/>
            <rect width="34.348" height="2.174" x="6.522" y="46.522" fill="#CFD2D3" fill-rule="nonzero" rx="1.087"/>
            <rect width="34.348" height="2.174" x="6.522" y="51.739" fill="#CFD2D3" fill-rule="nonzero" rx="1.087"/>
            <rect width="16.087" height="2.174" x="6.522" y="57.391" fill="#CFD2D3" fill-rule="nonzero" rx="1.087"/>
            <rect width="8.261" height="2.174" x="25.652" y="57.391" fill="#CFD2D3" fill-rule="nonzero" rx="1.087"/>
            <rect width="12.174" height="2.174" x="6.522" y="62.609" fill="#FF7800" fill-rule="nonzero" rx="1.087"/>
            <rect width="14.348" height="2.174" x="24.348" y="12.609" fill="#1B99E5" fill-rule="nonzero" rx="1.087"/>
            <rect width="16.522" height="2.174" x="24.348" y="17.826" fill="#1B99E5" fill-rule="nonzero" rx="1.087"/>
        </g>
        <g transform="translate(96 34.26)">
            <ellipse cx="14.348" cy="15.87" fill="#D8D8D8" fill-rule="nonzero" rx="7.826" ry="7.609"/>
            <rect width="50" height="69" y=".13" fill="#F3F4F4" fill-rule="nonzero" rx="3"/>
            <circle cx="7.563" cy="7.563" r="7.563" fill="#A5CFE9" fill-rule="nonzero" transform="translate(6.957 8.26)"/>
            <g transform="translate(6.957 8.26)">
                <mask id="x" fill="#fff">
                    <use xlink:href="#w"/>
                </mask>
                <path fill="#1974AB" fill-rule="nonzero" d="M4.596 10.445s-1.802.146-1.325 3.437c.247.237.539.422.858.546l1.014-3.432-.547-.551z" mask="url(#x)"/>
            </g>
            <g transform="translate(6.957 8.26)">
                <mask id="z" fill="#fff">
                    <use xlink:href="#y"/>
                </mask>
                <path fill="#1974AB" fill-rule="nonzero" d="M10.445 10.445s1.802.146 1.325 3.437a2.59 2.59 0 0 1-.858.546l-1.01-3.442.543-.541z" mask="url(#z)"/>
            </g>
            <g transform="translate(6.957 8.26)">
                <mask id="B" fill="#fff">
                    <use xlink:href="#A"/>
                </mask>
                <circle cx="7.569" cy="4.829" r="3.353" fill="#333" fill-rule="nonzero" mask="url(#B)"/>
            </g>
            <g transform="translate(6.957 8.26)">
                <mask id="D" fill="#fff">
                    <use xlink:href="#C"/>
                </mask>
                <path fill="#1974AB" fill-rule="nonzero" d="M10.445 10.445H4.596l-.546 2.339s-.321 1.083.078 1.56c.399.476 4.124 1.56 6.862.077a3.051 3.051 0 0 0 .077-1.95c-.312-1.09-.077-.077-.077-.077l-.545-1.95z" mask="url(#D)"/>
            </g>
            <g transform="translate(6.957 8.26)">
                <mask id="F" fill="#fff">
                    <use xlink:href="#E"/>
                </mask>
                <circle cx="7.569" cy="5.557" r="3.353" fill="#FDA57D" fill-rule="nonzero" mask="url(#F)"/>
            </g>
            <g transform="translate(6.957 8.26)">
                <mask id="H" fill="#fff">
                    <use xlink:href="#G"/>
                </mask>
                <path fill="#1974AB" fill-rule="nonzero" d="M10.488 10.445h-5.85l-.547 2.339s-.321 1.083.078 1.56c.399.476 4.124 1.56 6.861.077a3.051 3.051 0 0 0 .078-1.95c-.312-1.09-.078-.077-.078-.077l-.542-1.95z" mask="url(#H)"/>
            </g>
            <g transform="translate(6.957 8.26)">
                <mask id="J" fill="#fff">
                    <use xlink:href="#I"/>
                </mask>
                <path fill="#FDA57D" fill-rule="nonzero" d="M6.39 8.416h2.34v2.156c0 .49-.397.886-.886.886h-.569a.886.886 0 0 1-.886-.886V8.416h.002z" mask="url(#J)"/>
            </g>
            <g transform="translate(6.957 8.26)">
                <mask id="L" fill="#fff">
                    <use xlink:href="#K"/>
                </mask>
                <path fill="#000" fill-rule="nonzero" d="M6.395 8.748c.754.28 1.584.28 2.339 0v-.287h-2.34v.287z" mask="url(#L)" opacity=".1"/>
            </g>
            <g transform="translate(6.957 8.26)">
                <mask id="N" fill="#fff">
                    <use xlink:href="#M"/>
                </mask>
                <path fill="#333" fill-rule="nonzero" d="M4.362 4.285h6.395s-.547-2.583-2.963-2.417c-2.417.166-3.432 2.417-3.432 2.417z" mask="url(#N)"/>
            </g>
            <g transform="translate(6.957 8.26)">
                <mask id="P" fill="#fff">
                    <use xlink:href="#O"/>
                </mask>
                <ellipse cx="4.286" cy="5.415" fill="#FDA57D" fill-rule="nonzero" mask="url(#P)" rx="1" ry="1"/>
            </g>
            <g transform="translate(6.957 8.26)">
                <mask id="R" fill="#fff">
                    <use xlink:href="#Q"/>
                </mask>
                <ellipse cx="10.836" cy="5.415" fill="#FDA57D" fill-rule="nonzero" mask="url(#R)" rx="1" ry="1"/>
            </g>
            <rect width="16.087" height="2.174" x="6.522" y="30" fill="#CFD2D3" fill-rule="nonzero" rx="1.087"/>
            <rect width="36.087" height="2.174" x="6.522" y="35.652" fill="#CFD2D3" fill-rule="nonzero" rx="1.087"/>
            <rect width="30.435" height="2.174" x="6.522" y="40.87" fill="#CFD2D3" fill-rule="nonzero" rx="1.087"/>
            <rect width="36.522" height="2.174" x="6.522" y="46.522" fill="#CFD2D3" fill-rule="nonzero" rx="1.087"/>
            <rect width="36.522" height="2.174" x="6.522" y="51.739" fill="#CFD2D3" fill-rule="nonzero" rx="1.087"/>
            <rect width="21.304" height="2.174" x="6.957" y="57.391" fill="#CFD2D3" fill-rule="nonzero" rx="1.087"/>
            <rect width="12.174" height="2.174" x="6.522" y="62.609" fill="#FF7800" fill-rule="nonzero" rx="1.087"/>
            <rect width="17.391" height="2.174" x="24.348" y="12.609" fill="#1B99E5" fill-rule="nonzero" rx="1.087"/>
            <rect width="14.348" height="2.174" x="24.348" y="17.826" fill="#1B99E5" fill-rule="nonzero" rx="1.087"/>
        </g>
        <g transform="translate(38 19.565)">
            <circle cx="20.304" cy="21.478" r="11.304" fill="#D8D8D8" fill-rule="nonzero"/>
            <rect width="72" height="100" y=".609" fill="#FFF" fill-rule="nonzero" rx="3"/>
            <circle cx="11.021" cy="11.021" r="11.021" fill="#E4F4FF" fill-rule="nonzero" transform="translate(9.229 10.469)"/>
            <g transform="translate(9.229 10.469)">
                <mask id="T" fill="#fff">
                    <use xlink:href="#S"/>
                </mask>
                <path fill="#BE7C5E" fill-rule="nonzero" d="M6.698 15.22s-2.626.212-1.932 5.007c.36.346.785.616 1.25.796l1.478-5-.796-.804z" mask="url(#T)"/>
            </g>
            <g transform="translate(9.229 10.469)">
                <mask id="V" fill="#fff">
                    <use xlink:href="#U"/>
                </mask>
                <path fill="#BE7C5E" fill-rule="nonzero" d="M15.22 15.22s2.625.212 1.93 5.007c-.36.346-.784.616-1.25.796l-1.47-5.015.79-.789z" mask="url(#V)"/>
            </g>
            <g transform="translate(9.229 10.469)">
                <mask id="X" fill="#fff">
                    <use xlink:href="#W"/>
                </mask>
                <path fill="#333" fill-rule="nonzero" d="M6.81 7.377s-.2.589-.488 1.27c-.626 1.488.088 7.207 1.584 7.817 1.678.685 4.033 1.444 6.178.286 1.774-.958 2.607-7.237 1.199-8.823a9.992 9.992 0 0 0-.518-.55H6.81z" mask="url(#X)"/>
            </g>
            <g transform="translate(9.229 10.469)">
                <mask id="Z" fill="#fff">
                    <use xlink:href="#Y"/>
                </mask>
                <circle cx="11.029" cy="7.037" r="4.885" fill="#333" fill-rule="nonzero" mask="url(#Z)"/>
            </g>
            <g transform="translate(9.229 10.469)">
                <mask id="ab" fill="#fff">
                    <use xlink:href="#aa"/>
                </mask>
                <path fill="#3AD29F" fill-rule="nonzero" d="M15.22 15.22H6.697l-.796 3.408s-.468 1.578.113 2.273c.581.694 6.009 2.272 9.998.113a4.446 4.446 0 0 0 .114-2.84 73.796 73.796 0 0 0-.908-2.955z" mask="url(#ab)"/>
            </g>
            <g transform="translate(9.229 10.469)">
                <mask id="ad" fill="#fff">
                    <use xlink:href="#ac"/>
                </mask>
                <circle cx="11.029" cy="8.098" r="4.885" fill="#BE7C5E" fill-rule="nonzero" mask="url(#ad)"/>
            </g>
            <g transform="translate(9.229 10.469)">
                <mask id="af" fill="#fff">
                    <use xlink:href="#ae"/>
                </mask>
                <path fill="#BE7C5E" fill-rule="nonzero" d="M9.312 12.264h3.408v3.141a1.29 1.29 0 0 1-1.29 1.291h-.83a1.29 1.29 0 0 1-1.29-1.29v-3.142h.002z" mask="url(#af)"/>
            </g>
            <g transform="translate(9.229 10.469)">
                <mask id="ah" fill="#fff">
                    <use xlink:href="#ag"/>
                </mask>
                <path fill="#000" fill-rule="nonzero" d="M9.318 12.747c1.1.407 2.308.407 3.408 0v-.418H9.318v.418z" mask="url(#ah)" opacity=".1"/>
            </g>
            <g transform="translate(9.229 10.469)">
                <mask id="aj" fill="#fff">
                    <use xlink:href="#ai"/>
                </mask>
                <path fill="#333" fill-rule="nonzero" d="M6.356 6.243h9.318s-.796-3.763-4.317-3.521c-3.522.241-5 3.521-5 3.521z" mask="url(#aj)"/>
            </g>
            <g transform="translate(9.229 10.469)">
                <mask id="al" fill="#fff">
                    <use xlink:href="#ak"/>
                </mask>
                <ellipse cx="6.245" cy="7.891" fill="#BE7C5E" fill-rule="nonzero" mask="url(#al)" rx="1" ry="1"/>
            </g>
            <g transform="translate(9.229 10.469)">
                <mask id="an" fill="#fff">
                    <use xlink:href="#am"/>
                </mask>
                <ellipse cx="15.789" cy="7.891" fill="#BE7C5E" fill-rule="nonzero" mask="url(#an)" rx="1" ry="1"/>
            </g>
            <rect width="55" height="3.24" x="8.874" y="42.517" fill="#EAECEE" fill-rule="nonzero" rx="1.62"/>
            <rect width="55" height="3.24" x="8.874" y="50.615" fill="#EAECEE" fill-rule="nonzero" rx="1.62"/>
            <rect width="46.968" height="3.24" x="8.874" y="58.713" fill="#EAECEE" fill-rule="nonzero" rx="1.62"/>
            <rect width="40.489" height="3.24" x="8.874" y="66.811" fill="#EAECEE" fill-rule="nonzero" rx="1.62"/>
            <rect width="35.631" height="3.24" x="8.874" y="74.91" fill="#EAECEE" fill-rule="nonzero" rx="1.62"/>
            <rect width="45.348" height="3.24" x="8.874" y="83.008" fill="#EAECEE" fill-rule="nonzero" rx="1.62"/>
            <rect width="17.814" height="3.24" x="8.874" y="91.106" fill="#FF7800" fill-rule="nonzero" rx="1.62"/>
            <rect width="27.533" height="3.24" x="34.788" y="16.605" fill="#1B99E5" fill-rule="nonzero" rx="1.62"/>
            <rect width="17.826" height="3.24" x="34.652" y="24.703" fill="#1B99E5" fill-rule="nonzero" rx="1.62"/>
        </g>
        <g transform="translate(1)">
            <mask id="ap" fill="#fff">
                <use xlink:href="#ao"/>
            </mask>
            <g mask="url(#ap)">
                <path fill="#FFC7B0" fill-rule="nonzero" d="M85.743 111.997c3.974-1.679 8.36-2.897 12.593-2.067 2.717.532 14.452 2.992 14.452 2.992s-.366 10.841-.125 11.384c1.256 2.804-23.899 4.834-23.899 4.834s-5.321-16.17-3.021-17.143z"/>
                <path fill="#F4A891" fill-rule="nonzero" d="M97.533 128.18s-4.14-14.037-4.53-14.121c-.39-.085-8.772-2.816-8.772-2.816s8.797 17.207 9.091 17.216c.295.01 4.211-.279 4.211-.279z"/>
                <path fill="#8E3E33" fill-rule="nonzero" d="M92.134 132.405l-19.67-36.238 1.676-.908 3.067-1.662 19.665 36.237a2.696 2.696 0 1 1-4.738 2.571z"/>
                <path fill="#B95241" fill-rule="nonzero" d="M93.77 131.427l-14.085-26.058 2.454-2.684 14.733 27.145a2.695 2.695 0 0 1-.256 2.96 2.692 2.692 0 0 1-2.846-1.363z"/>
                <path fill="#8E3E33" fill-rule="nonzero" d="M84.72 115.747l3.745-1.368-1.418-2.684-5.598-2.837-.882 1.534z"/>
                <path fill="#023757" fill-rule="nonzero" d="M81.124 103.16l-3.339 1.812a2.244 2.244 0 1 1-2.14-3.944l3.338-1.812a2.244 2.244 0 1 1 2.14 3.944z"/>
                <path fill="#023757" fill-rule="nonzero" d="M82.308 102.535l-3.415 1.787a1.205 1.205 0 0 1-1.63-.483l-.994-1.83a1.207 1.207 0 0 1 .483-1.632l.178-.093 1.724-.902 1.513-.791.043-.022a1.205 1.205 0 0 1 1.588.505l.992 1.83c.315.584.1 1.313-.482 1.631z"/>
                <path fill="#1974AB" fill-rule="nonzero" stroke="#023757" stroke-width="2" d="M83.803 72.224a18.932 18.932 0 0 0-4.986-5.731 19.129 19.129 0 0 0-21.076-1.43c-9.178 5.194-12.397 16.869-7.17 26.065a19.123 19.123 0 0 0 26.099 7.19c9.167-5.253 12.385-16.926 7.133-26.094zm-9.311 22.32c-7.093 4.027-16.108 1.55-20.145-5.536-4.013-7.118-1.56-16.157 5.564-20.162a14.766 14.766 0 0 1 20.145 5.528c4.04 7.09 1.53 16.13-5.564 20.17z"/>
                <path fill="#FFF" fill-rule="nonzero" d="M74.706 94.921c-7.301 4.146-16.581 1.596-20.737-5.698-4.132-7.328-1.605-16.633 5.728-20.755a15.2 15.2 0 0 1 20.737 5.69c4.16 7.299 1.574 16.605-5.728 20.763z"/>
                <g transform="translate(51.7 66.148)">
                    <mask id="ar" fill="#fff">
                        <use xlink:href="#aq"/>
                    </mask>
                    <path fill="#EAECEE" fill-rule="nonzero" d="M-5.652 3.163h71.739v4.348H-5.652z" mask="url(#ar)"/>
                </g>
                <g transform="translate(51.7 66.148)">
                    <mask id="at" fill="#fff">
                        <use xlink:href="#as"/>
                    </mask>
                    <path fill="#EAECEE" fill-rule="nonzero" d="M-5.652 14.033h63.043v4.348H-5.652z" mask="url(#at)"/>
                </g>
                <g transform="translate(51.7 66.148)">
                    <mask id="av" fill="#fff">
                        <use xlink:href="#au"/>
                    </mask>
                    <path fill="#EAECEE" fill-rule="nonzero" d="M-5.652 24.902h54.348v4.348H-5.652z" mask="url(#av)"/>
                </g>
                <g transform="translate(51.7 66.148)">
                    <mask id="ax" fill="#fff">
                        <use xlink:href="#aw"/>
                    </mask>
                    <path fill="#FFF" fill-rule="nonzero" d="M6.955 29.73c1.2 0-.56-3.688-.56-7.89 0-4.203 1.76-7.328.56-7.328s-3.094 3.035-3.094 7.237c0 4.203 1.894 7.98 3.094 7.98z" mask="url(#ax)" transform="rotate(-33 5.617 22.12)"/>
                </g>
                <path fill="#F4A891" fill-rule="nonzero" d="M75.077 116.13v.02a2.339 2.339 0 0 0 2.845 2.346l5.52-1.261a2.342 2.342 0 0 0 1.758-2.794v-.013a2.34 2.34 0 0 0-2.791-1.742l-5.521 1.26a2.34 2.34 0 0 0-1.811 2.183z"/>
                <path fill="#FFC7B0" fill-rule="nonzero" d="M75.077 116.13a2.342 2.342 0 0 0 2.79 1.734l5.52-1.263a2.339 2.339 0 0 0 1.812-2.171 2.34 2.34 0 0 0-2.792-1.742l-5.52 1.259a2.34 2.34 0 0 0-1.81 2.182z"/>
                <path fill="#F4A891" fill-rule="nonzero" d="M79.21 120.01v.01c-.007.2.012.399.056.593a2.36 2.36 0 0 0 2.815 1.769l6.166-1.41a2.345 2.345 0 0 0 1.732-2.947 2.357 2.357 0 0 0-2.78-1.635l-6.163 1.41a2.362 2.362 0 0 0-1.826 2.21z"/>
                <path fill="#FFC7B0" fill-rule="nonzero" d="M79.21 120.01a2.356 2.356 0 0 0 2.776 1.628l6.166-1.406a2.363 2.363 0 0 0 1.825-2.207 2.357 2.357 0 0 0-2.779-1.635l-6.163 1.41a2.362 2.362 0 0 0-1.825 2.21z"/>
                <path fill="#F4A891" fill-rule="nonzero" d="M82.562 123.825c-.005.138.005.276.028.412l.024.12a2.113 2.113 0 0 0 2.516 1.586l5.26-1.201a2.115 2.115 0 0 0 1.584-2.526 2.109 2.109 0 0 0-2.523-1.584l-5.26 1.2a2.12 2.12 0 0 0-1.629 1.993z"/>
                <path fill="#FFC7B0" fill-rule="nonzero" d="M82.562 123.825c-.005.138.005.276.028.412a2.113 2.113 0 0 0 2.403 1.227l5.26-1.2a2.113 2.113 0 0 0 1.606-2.416 2.109 2.109 0 0 0-2.402-1.218l-5.26 1.2a2.12 2.12 0 0 0-1.635 1.995z"/>
                <path fill="#F4A891" fill-rule="nonzero" d="M85.436 127.53l.039.262a1.84 1.84 0 0 0 2.077 1.558l5.23-.748a1.84 1.84 0 0 0 1.55-2.08l-.04-.262a1.84 1.84 0 0 0-2.081-1.555l-5.223.755a1.84 1.84 0 0 0-1.552 2.07z"/>
                <path fill="#FFC7B0" fill-rule="nonzero" d="M85.436 127.53l.039.262a.92.92 0 0 0 .023.117 1.83 1.83 0 0 0 1.84.88l5.231-.748a1.84 1.84 0 0 0 1.558-2.075l-.038-.263a.94.94 0 0 0-.023-.116 1.84 1.84 0 0 0-1.84-.88l-5.238.753a1.84 1.84 0 0 0-1.552 2.07zM102.473 116.427l-12.812-3.517-5.643-1.905c-1.88-.515-2.876-1.711-3.01-3.659v-.166c.006-.226.063-.448.166-.65.203-.399.641-.485 1.128-.439.293.03.582.088.864.172l1.944.667 3.27 1.123 10.66 2.02 3.433 6.354z"/>
                <path fill="#FFE0D2" fill-rule="nonzero" d="M81.636 113.67l.92-.25a1.27 1.27 0 1 1 .632 2.453l-.99.24-.562-2.442zM86.565 117.459l.9-.243c.107-.028.217-.043.327-.043a1.227 1.227 0 0 1 .293 2.427l-.962.23-.558-2.371zM88.95 121.638l.852-.22c.1-.025.204-.039.307-.04a1.172 1.172 0 0 1 1.155.861c.07.278.024.572-.127.816a1.161 1.161 0 0 1-.741.521l-.92.212-.526-2.15zM91.404 125.596l.817-.153a1.115 1.115 0 0 1 1.299.917 1.097 1.097 0 0 1-.92 1.244l-.877.135-.32-2.143z" opacity=".63"/>
                <path fill="#FFD7C5" fill-rule="nonzero" d="M85.105 106.93a.141.141 0 0 1-.01.051l-.413 1.104a.175.175 0 0 1-.215.106c-.535-.153-1.817-.613-2.172-1.343a.853.853 0 0 1-.02-.72.11.11 0 0 1 .022-.037c.081-.153.541.036.865.172l1.943.667z"/>
                <path fill="#F4A891" fill-rule="nonzero" d="M80.82 107.318a.227.227 0 0 0 0 .045c.137 1.915 1.028 3.067 3.549 4.095l8.62 3.573c.039 0 1.956-1.1 1.956-1.112 0-.198-10.834-3.308-12.538-4.486-2.3-1.59-.947-3.461-.997-3.182-.449.126-.549.748-.59 1.067z"/>
                <path fill="#F4A891" fill-rule="nonzero" d="M96.26 116.939l-3.156-2.675 3.118 14.467 17.126-2.454-.583-13.942h-2.3l-.698 6.734s-6.54 3.58-13.506-2.13z"/>
                <path fill="#FFF" fill-rule="nonzero" d="M115.71 127.877l-4.965-.16.516-16.077 4.965.16z"/>
                <path fill="#1974AB" fill-rule="nonzero" d="M114.689 130.378l23.043.829V112.47l-22.437-.83z"/>
            </g>
        </g>
    </g>
</svg>
