<svg xmlns="http://www.w3.org/2000/svg" xmlns:xlink="http://www.w3.org/1999/xlink" width="150" height="150" viewBox="0 0 150 150">
    <defs>
        <circle id="a" cx="74" cy="74" r="74"/>
        <rect id="c" width="11.646" height="12.112" x=".326" y=".099" rx="3.05"/>
        <rect id="e" width="11.646" height="12.112" x=".326" y=".099" rx="3.05"/>
        <linearGradient id="g" x1="0%" y1="50%" y2="50%">
            <stop offset="0%" stop-color="#1974AB"/>
            <stop offset="100%" stop-color="#045281"/>
        </linearGradient>
        <rect id="h" width="11.646" height="12.112" x=".326" y=".099" rx="3.05"/>
    </defs>
    <g fill="none" fill-rule="evenodd">
        <circle cx="75" cy="75" r="74" fill="#1B99E5" fill-opacity=".1" fill-rule="nonzero" stroke="#1B99E5" stroke-width="2"/>
        <circle cx="75" cy="75" r="75" fill="#FFF" fill-opacity="0" fill-rule="nonzero"/>
        <g transform="translate(.466 .466)">
            <mask id="b" fill="#fff">
                <use xlink:href="#a"/>
            </mask>
            <g mask="url(#b)">
                <g transform="translate(21.894 27.95)">
                    <rect width="1.049" height="8.963" x="77.891" y="16.657" fill="#888" fill-rule="nonzero" rx=".525"/>
                    <rect width="1.049" height="3.034" x="28.373" y="12.06" fill="#888" fill-rule="nonzero" rx=".525"/>
                    <rect width="1.049" height="5.573" x="28.373" y="17.637" fill="#888" fill-rule="nonzero" rx=".525"/>
                    <rect width="1.049" height="5.573" x="28.373" y="24.637" fill="#888" fill-rule="nonzero" rx=".525"/>
                    <path fill="#F4A891" fill-rule="nonzero" d="M41.65 31.225l-5.94-2.087c-1.65-.473-3.39.23-4.68.188-1.47-.05-2.757-.558-3.72-.249-3.323 1.067-2.743 4.98.487 7.974 4.207 3.913 9.656 3.27 9.656 3.27l4.197-9.096zM39.154 45.694l-6.275.495c-1.7.235-3.005 1.579-4.207 2.06-1.366.547-2.75.6-3.504 1.273-2.607 2.315-.501 5.651 3.664 7.113 5.427 1.885 10.154-.907 10.154-.907l.168-10.034zM37.176 62.198l-6.274.494c-1.7.235-3.006 1.58-4.208 2.06-1.366.547-2.75.6-3.503 1.273-2.607 2.316-.502 5.652 3.663 7.114 5.428 1.885 10.155-.907 10.155-.907l.167-10.034z"/>
                    <path fill="#FFC7B0" fill-rule="nonzero" d="M102.884 93.48L94.6 56.233l-16.005-33.16s-.103-2.244-5.712-4.592c-5.61-2.347-11.631 33.16-11.631 33.16l-4.795 28.874s4.489 20.815 13.872 29.998c9.383 9.184 12.537 8.256 12.537 8.256l2.846 6.633 23.272-6.633-6.1-25.29z"/>
                    <path fill="#F4A891" fill-rule="nonzero" d="M74.135 52.36l4.958 7.199 3.382 1.408-3.382-29.169zM72.474 81.223h-15.87c3.663 11.958 17.737 14.028 20.027 14.49-2.344-5.335-2.205-7.34-3.912-14.493l-.245.003z"/>
                    <rect width="49.496" height="85.278" x="29.17" y=".181" fill="#023757" fill-rule="nonzero" rx="6"/>
                    <path fill="#A5CFE9" d="M35.348 2.365h9.521c.274.917.167 1.69.811 2.134.356.23.921.355 1.889.355h12.694c1.039 0 1.618-.145 1.96-.409.569-.434.48-1.184.743-2.066h9.508a4.001 4.001 0 0 1 3.99 3.99v72.915a4.001 4.001 0 0 1-3.99 3.987H35.348a4.001 4.001 0 0 1-3.99-3.99V6.365a4.001 4.001 0 0 1 3.99-4.001z"/>
                    <path fill="#FFF" fill-opacity=".15" d="M35.348 2.365h9.521c.274.917.167 1.69.811 2.134.356.23.921.355 1.889.355h12.694c1.039 0 1.618-.145 1.96-.409.569-.434.48-1.184.743-2.066h9.508a4.001 4.001 0 0 1 3.99 3.99v21.736C67.04 45.131 50.714 57.687 31.34 61.863V6.377a4.001 4.001 0 0 1 4.009-4.012z"/>
                    <rect width="7.828" height="1" x="48.721" y="2.514" fill="#231916" fill-rule="nonzero" stroke="#231916" stroke-width=".42" rx=".5"/>
                    <circle cx="58.104" cy="2.891" r="1.014" fill="#231916" fill-rule="nonzero"/>
                    <circle cx="58.104" cy="2.887" r="1" fill="#271B19" fill-rule="nonzero"/>
                    <circle cx="58.104" cy="2.891" r="1" fill="#231916" fill-rule="nonzero"/>
                    <circle cx="58.104" cy="2.887" r="1" fill="#3E3A39" fill-rule="nonzero"/>
                    <circle cx="58.435" cy="2.742" r="1" fill="#EEEEEF" fill-rule="nonzero"/>
                    <circle cx="57.713" cy="3.019" r="1" fill="#EEEEEF" fill-rule="nonzero"/>
                    <g transform="translate(0 37.267)">
                        <path fill="#FFF" fill-rule="nonzero" d="M0 15.027V3.756C0 1.682 1.533 0 3.425 0h52.43c1.893 0 3.426 1.682 3.426 3.756v11.271c0 2.074-1.533 3.756-3.425 3.756h-8.433l-.107 6.047-4.926-6.047H3.422C1.533 18.787 0 17.101 0 15.027z"/>
                        <g fill="#FFDA46" fill-rule="nonzero">
                            <path d="M5.731 14.768l.304.59.628.122-.44.485.084.666-.576-.29-.575.29.085-.666-.441-.485.628-.122zM8.06 14.768l.304.59.628.122-.441.485.085.666-.575-.29-.576.29.085-.666-.441-.485.628-.122zM10.39 14.768l.303.59.629.122-.442.485.085.666-.575-.29-.576.29.084-.666-.44-.485.628-.122zM12.718 14.768l.305.59.628.122-.44.485.085.666-.578-.29-.576.29.086-.666-.44-.485.628-.122zM15.048 14.768l.304.59.628.122-.44.485.084.666-.576-.29-.575.29.085-.666-.441-.485.628-.122z"/>
                        </g>
                        <rect width="24.689" height="1.863" x="20.963" y="6.522" fill="#EAECEE" fill-rule="nonzero" rx=".932"/>
                        <g fill="#1B99E5" fill-rule="nonzero" transform="translate(47.05 1.863)">
                            <path d="M9.619 4.64c0 .772-.626 1.397-1.398 1.397H4.628L2.63 8.385V6.037H1.7A1.398 1.398 0 0 1 .302 4.64V1.398C.302.626.928 0 1.7 0H8.22C8.993 0 9.62.626 9.62 1.398V4.64zm-5.314.699H8.22a.699.699 0 0 0 .7-.7V1.399a.699.699 0 0 0-.7-.7H1.7a.699.699 0 0 0-.699.7V4.64c0 .386.313.699.699.699h1.63v1.146l.975-1.146z"/>
                            <circle cx="6.824" cy="3.028" r="1"/>
                            <circle cx="4.961" cy="3.028" r="1"/>
                            <circle cx="3.097" cy="3.028" r="1"/>
                        </g>
                        <path fill="#023757" fill-rule="nonzero" d="M22.051 3.317c0-.757.447-1.405 1.312-1.405.7 0 1.085.44 1.085.7 0 .172-.094.276-.276.276-.354 0-.25-.484-.809-.484-.384 0-.7.331-.7.913 0 .488.193.913.722.913.481 0 .47-.514.764-.514.15 0 .299.085.299.234 0 .388-.47.772-1.063.772-.838 0-1.334-.481-1.334-1.405zm2.71 1.118V2.199c0-.18.108-.272.272-.272.164 0 .272.093.272.272v.749h.007a.732.732 0 0 1 .608-.287c.328 0 .685.164.685.715v1.059c0 .145-.06.272-.272.272-.212 0-.272-.127-.272-.272v-.95c0-.22-.108-.377-.343-.377a.423.423 0 0 0-.413.429v.898c0 .145-.06.272-.272.272-.213 0-.272-.127-.272-.272zm4.084-1.215v.913c0 .227.056.28.056.365 0 .123-.116.209-.246.209-.235 0-.313-.15-.32-.317-.213.235-.459.317-.746.317-.31 0-.615-.213-.615-.555 0-.451.343-.578.76-.627l.332-.037c.13-.015.235-.045.235-.201 0-.157-.16-.224-.343-.224-.402 0-.414.298-.63.298-.138 0-.23-.096-.23-.208 0-.216.305-.492.864-.492.522 0 .883.168.883.559zm-.544.734v-.212c-.06.056-.171.074-.235.085l-.197.03c-.228.034-.35.104-.35.268 0 .123.115.224.301.224.298 0 .481-.194.481-.395zm1.155.268V3.067h-.093c-.153 0-.216-.06-.216-.179 0-.12.063-.179.216-.179h.093v-.331c0-.18.108-.272.272-.272.164 0 .272.093.272.272v.331h.164c.16 0 .246.049.246.18 0 .13-.085.178-.246.178H30v1.088c0 .082.045.127.142.127h.078c.12 0 .19.067.19.183 0 .156-.134.242-.395.242-.395 0-.559-.164-.559-.485zm1.38 0V3.067h-.094c-.153 0-.216-.06-.216-.179 0-.12.063-.179.216-.179h.093v-.331c0-.18.108-.272.272-.272.164 0 .272.093.272.272v.331h.164c.16 0 .246.049.246.18 0 .13-.086.178-.246.178h-.164v1.088c0 .082.045.127.142.127h.078c.12 0 .19.067.19.183 0 .156-.134.242-.395.242-.395 0-.559-.164-.559-.485zm1.266.213V2.933c0-.145.06-.272.272-.272.213 0 .272.127.272.272v1.502c0 .145-.06.272-.272.272-.212 0-.272-.127-.272-.272zm-.011-2.24a.283.283 0 1 1 .566 0 .283.283 0 0 1-.566 0zm1.017 2.24V2.933c0-.164.075-.272.246-.272.172 0 .246.108.246.272v.07h.008c.153-.2.35-.342.66-.342.327 0 .685.164.685.715v1.059c0 .145-.06.272-.272.272-.212 0-.272-.127-.272-.272v-.95c0-.22-.108-.377-.343-.377a.423.423 0 0 0-.413.429v.898c0 .145-.06.272-.273.272-.212 0-.272-.127-.272-.272zm2.74-.757c0 .25.123.526.432.526.242 0 .428-.16.428-.548 0-.395-.149-.57-.402-.57-.35 0-.458.257-.458.592zm1.382-.76v1.58c0 .656-.402.958-.969.958-.413 0-.82-.186-.82-.451 0-.134.105-.231.224-.231.227 0 .272.28.578.28.331 0 .465-.168.465-.597v-.112h-.007a.67.67 0 0 1-.525.261c-.574 0-.873-.372-.873-.91 0-.703.395-1.035.854-1.035.264 0 .473.123.574.324h.007v-.067c0-.168.086-.257.246-.257.168 0 .246.09.246.257z"/>
                        <rect width="35.87" height="1" x="20.799" y="12.112" fill="#EAECEE" fill-rule="nonzero" rx=".5"/>
                        <rect width="35.87" height="1" x="20.799" y="14.907" fill="#EAECEE" fill-rule="nonzero" rx=".5"/>
                        <rect width="11.646" height="12.112" x=".326" y=".099" fill="#E4F4FF" fill-rule="nonzero" rx="3.05" transform="translate(4.169 1.764)"/>
                        <g transform="translate(4.169 1.764)">
                            <mask id="d" fill="#fff">
                                <use xlink:href="#c"/>
                            </mask>
                            <g fill-rule="nonzero" mask="url(#d)">
                                <path fill="#572E17" d="M3.553 2.49c-.258.492-.488.998-.69 1.515-.103.267-.146 2.095.91 3.557C4.83 9.024 7.15 8.867 7.191 8.949c.107.206.214 0 .43.224a4.905 4.905 0 0 0 1.174-4.858L3.553 2.49z"/>
                                <path fill="#EF8D91" d="M7.213 8.878a.48.48 0 0 0-.168.427c.05.15.655.31.733.234.512-.469-.316-.75-.565-.661z"/>
                                <path fill="#F5B67B" d="M7.358 11.229l1.49-1.124c.652.217.84 2.066.908 2.927H8.198l-.84-1.803z"/>
                                <path fill="#F5B67B" d="M6.021 8.885h-.686v.434c0 .516-1.37.562-1.832.711.167.907-.125 1.306 2.39 2.82h.356c1.22-.444 2.134-.984 2.376-2.809-.477-.153-1.917-.196-1.917-.711v-.445H6.02z"/>
                                <path fill="#F5B67B" d="M4.25 11.535c-.064-.05-1.014-1.423-1.014-1.423-.65.217-.84 2.067-.907 2.927h1.558l.363-1.504z"/>
                                <path fill="#78575E" d="M3.492 10.03h-.277c.116.407.198.822.245 1.242-.092.619-.455 1.067-.195 1.654h5.637c.26-.587-.103-1.032-.195-1.654.047-.42.13-.835.245-1.242h-.277a2.643 2.643 0 0 1-5.076 0h-.107z"/>
                                <path fill="#F6BE81" d="M4 5.495a.804.804 0 0 1-.5 1.032.79.79 0 0 1-.904-.711c-.114-.513.107-1.004.494-1.096.388-.092.797.26.91.775zM8.194 5.495a.804.804 0 0 0 .502 1.032.79.79 0 0 0 .903-.711c.114-.513-.106-1.004-.494-1.096-.388-.092-.797.26-.91.775z"/>
                                <path fill="#F6C793" d="M6.1 1.323h-.406v.022h-.068a2.774 2.774 0 0 0-2.091 1.148c-.498.676-.562 1.523-.523 2.337.1 2.092 1.27 4.436 3.07 4.453 1.8.018 2.966-2.365 3.07-4.453.038-.814-.03-1.66-.524-2.337a2.774 2.774 0 0 0-2.077-1.148h-.043v-.032h-.405l-.004.01z"/>
                                <path fill="#572E17" d="M7.376 2.134c-.025.114 0 .73.712 1.672.711.942.74 1.024.74 1.024s.031 1.59.124 1.402c.105-.515.178-1.035.22-1.558a3.503 3.503 0 0 0 0-1.451c-.18-.74-.409-1.018-.71-1.142a2.682 2.682 0 0 0-1.086.053zM3.432 4.126c-.125.139-.523.153-.523.153 0 .128.188 2.07.356 1.931l.167-2.084z"/>
                                <path fill="#572E17" d="M8.827 4.83c.032-.537.31-1.778.175-2.105-.392-.968-1.106-1.359-2.309-1.48a3.674 3.674 0 0 0-.675 0c.704 1.135 1.284 2.646 2.81 3.585z"/>
                                <path fill="#572E17" d="M7.686 2.412C7.444 3.93 4.236 3.44 3.183 5.257 2.009 3.48 3.809-.16 6.939 1.25l.747 1.163zM6.494 10.315c-.355.932-.092 1.223-.092 1.223l.042-.522c.07.352.116.708.14 1.067a3.83 3.83 0 0 1-.147.96c.396-.223.733-.538.982-.918.324-.562.213-1.618.213-1.618.039.108.084.214.136.316.04-.297.054-.596.042-.896a1.117 1.117 0 0 0-.096-.572c-.544-.794-1.088.63-1.22.96z"/>
                            </g>
                        </g>
                    </g>
                    <g transform="translate(47.981 12.112)">
                        <path fill="#FFF" fill-rule="nonzero" d="M59.583 15.027V3.756C59.583 1.682 58.05 0 56.158 0H3.728C1.834 0 .301 1.682.301 3.756v11.271c0 2.074 1.533 3.756 3.425 3.756h8.434l.106 6.047 4.926-6.047h38.965c1.892.011 3.425-1.682 3.425-3.756z"/>
                        <g fill-rule="nonzero">
                            <path fill="#1B99E5" d="M49.996 2.795c.36-.266.785-.45 1.246-.521v-.876c-.699.081-1.338.359-1.863.776l.617.621zM48.858 4.658c.071-.46.254-.885.52-1.246l-.62-.617a3.675 3.675 0 0 0-.777 1.863h.877z"/>
                            <path fill="#E0E2E4" d="M54.658 2.795l-.62.617c.266.36.45.785.52 1.246h.877a3.674 3.674 0 0 0-.777-1.863zM52.174 1.398v.876c.461.071.886.255 1.246.521l.617-.62a3.675 3.675 0 0 0-1.863-.777zM55.435 5.59h-.877a2.816 2.816 0 0 1-.52 1.246l.62.617a3.675 3.675 0 0 0 .777-1.863zM53.42 7.453c-.36.267-.785.45-1.246.521v.877c.699-.082 1.338-.36 1.863-.777l-.617-.62z"/>
                            <path fill="#1B99E5" d="M49.379 6.836a2.815 2.815 0 0 1-.521-1.246h-.877c.082.7.36 1.339.777 1.863l.62-.617zM51.242 7.974a2.816 2.816 0 0 1-1.246-.52l-.617.62a3.674 3.674 0 0 0 1.863.777v-.877zM50.77 5.46h-.15v.285h-.253V5.46h-.522v-.227l.485-.8h.29v.824h.15v.203zm-.403-.202v-.57l-.33.57h.33zm.772.134c.01.056.03.1.06.13.029.03.071.046.127.046a.172.172 0 0 0 .147-.068.278.278 0 0 0 .05-.17.296.296 0 0 0-.047-.17c-.031-.047-.08-.07-.147-.07a.254.254 0 0 0-.082.011.163.163 0 0 0-.092.081l-.233-.01.093-.73h.727v.22h-.54l-.047.29a.542.542 0 0 1 .094-.053.397.397 0 0 1 .137-.02c.11 0 .204.036.286.11.081.073.122.18.122.32 0 .122-.04.23-.118.327-.078.095-.195.143-.351.143a.466.466 0 0 1-.31-.1.392.392 0 0 1-.134-.287h.258zm1.11-.477a.14.14 0 0 0 .103-.042.14.14 0 0 0 .042-.103.14.14 0 0 0-.042-.102.14.14 0 0 0-.103-.042.14.14 0 0 0-.102.042.14.14 0 0 0-.042.102c0 .04.014.074.042.103a.14.14 0 0 0 .102.042zm.339-.145a.327.327 0 0 1-.099.24.326.326 0 0 1-.24.099.326.326 0 0 1-.239-.1.326.326 0 0 1-.099-.239c0-.093.033-.173.1-.239a.326.326 0 0 1 .238-.1c.094 0 .174.034.24.1s.099.146.099.24zm.69.663a.14.14 0 0 0-.042-.103.14.14 0 0 0-.102-.042.14.14 0 0 0-.103.042.14.14 0 0 0-.042.103c0 .04.014.074.042.102a.14.14 0 0 0 .103.042.14.14 0 0 0 .102-.042.14.14 0 0 0 .042-.102zm.194 0a.326.326 0 0 1-.099.239.326.326 0 0 1-.24.1.326.326 0 0 1-.238-.1.326.326 0 0 1-.1-.24c0-.093.033-.173.1-.24a.327.327 0 0 1 .239-.098c.093 0 .173.033.24.1.065.065.098.145.098.239zm-.483-1.008h.138l-.735 1.354h-.14l.737-1.354z"/>
                        </g>
                        <g fill-rule="nonzero">
                            <path fill="#FFDA46" d="M6.197 14.768l.304.59.628.122-.44.485.084.666-.576-.29-.575.29.085-.666-.441-.485.628-.122zM8.526 14.768l.304.59.628.122-.441.485.085.666-.576-.29-.575.29.085-.666-.441-.485.628-.122zM10.856 14.768l.303.59.628.122-.441.485.085.666-.575-.29-.576.29.084-.666-.44-.485.628-.122zM13.184 14.768l.305.59.628.122-.44.485.084.666-.577-.29-.576.29.086-.666-.44-.485.628-.122z"/>
                            <path fill="#EAECEE" d="M15.514 14.768l.304.59.628.122-.44.485.084.666-.576-.29-.575.29.085-.666-.442-.485.629-.122z"/>
                        </g>
                        <rect width="24.689" height="1.863" x="21.429" y="6.988" fill="#EAECEE" fill-rule="nonzero" rx=".932"/>
                        <rect width="10.714" height="1.863" x="21.429" y="6.988" fill="#1B99E5" fill-rule="nonzero" rx=".932"/>
                        <path fill="#023757" fill-rule="nonzero" d="M21.865 4.401V2.232c0-.182.119-.305.305-.305.187 0 .306.123.306.305v2.17c0 .182-.12.305-.306.305s-.305-.123-.305-.306zm1.11.034V2.933c0-.164.075-.272.246-.272.172 0 .246.108.246.272v.07h.008c.152-.2.35-.342.66-.342.327 0 .685.164.685.715v1.059c0 .145-.06.272-.272.272-.213 0-.272-.127-.272-.272v-.95c0-.22-.108-.377-.343-.377a.423.423 0 0 0-.414.429v.898c0 .145-.06.272-.272.272-.212 0-.272-.127-.272-.272zm3.418.723v-2.24c0-.168.078-.257.246-.257.16 0 .245.09.245.257v.086h.008c.09-.231.31-.343.574-.343.454 0 .853.332.853 1.036 0 .522-.264 1.01-.838 1.01-.25 0-.436-.1-.537-.276h-.007v.727c0 .179-.108.272-.272.272-.164 0-.272-.093-.272-.272zm1.382-1.48c0-.32-.141-.585-.432-.592-.317 0-.436.283-.436.592 0 .28.104.608.436.604.346 0 .432-.35.432-.604zm.924.757v-1.52c0-.165.108-.254.246-.254s.246.09.246.253v.209h.008c.063-.227.186-.462.45-.462.172 0 .299.112.299.264 0 .202-.134.273-.268.273h-.097c-.22 0-.34.152-.34.603v.634c0 .145-.06.272-.272.272-.212 0-.272-.127-.272-.272zm1.905-.753c0 .332.138.622.462.622s.462-.29.462-.622c0-.354-.145-.619-.462-.619-.317 0-.462.265-.462.619zm-.544 0c0-.574.35-1.021 1.006-1.021s1.006.447 1.006 1.021c0 .544-.265 1.025-1.006 1.025-.742 0-1.006-.48-1.006-1.025zm2.824-.004c0 .25.123.526.433.526.242 0 .428-.16.428-.548 0-.395-.149-.57-.402-.57-.35 0-.459.257-.459.592zm1.383-.76v1.58c0 .656-.402.958-.969.958-.414 0-.82-.186-.82-.451 0-.134.105-.231.224-.231.227 0 .272.28.578.28.331 0 .465-.168.465-.597v-.112h-.007a.67.67 0 0 1-.526.261c-.573 0-.872-.372-.872-.91 0-.703.395-1.035.854-1.035.264 0 .473.123.574.324h.007v-.067c0-.168.086-.257.246-.257.168 0 .246.09.246.257zm.462 1.517v-1.52c0-.165.108-.254.246-.254s.246.09.246.253v.209h.008c.063-.227.186-.462.45-.462.172 0 .299.112.299.264 0 .202-.135.273-.269.273h-.097c-.22 0-.339.152-.339.603v.634c0 .145-.06.272-.272.272-.212 0-.272-.127-.272-.272zm3.134-.649h-1.23c0 .287.187.496.504.496.41 0 .41-.268.63-.268.13 0 .223.111.223.212 0 .328-.525.48-.853.48-.76 0-1.048-.513-1.048-.987 0-.633.384-1.058 1.029-1.058.626 0 .984.443.984.89 0 .187-.056.235-.239.235zm-1.23-.313h.955c-.03-.25-.217-.432-.459-.432-.272 0-.436.168-.495.432zm1.733-.205c0-.443.44-.607.817-.607.413 0 .83.164.83.414 0 .126-.085.238-.227.238-.212 0-.22-.25-.562-.25-.19 0-.313.053-.313.168 0 .127.123.157.29.194l.228.052c.309.07.678.201.678.581 0 .444-.429.649-.839.649-.492 0-.902-.22-.902-.488 0-.12.068-.228.22-.228.235 0 .257.336.66.336.194 0 .317-.086.317-.198 0-.138-.12-.16-.313-.209l-.32-.078c-.318-.078-.564-.208-.564-.574zm2.002 0c0-.443.44-.607.816-.607.414 0 .83.164.83.414 0 .126-.085.238-.226.238-.213 0-.22-.25-.563-.25-.19 0-.313.053-.313.168 0 .127.123.157.29.194l.228.052c.31.07.678.201.678.581 0 .444-.428.649-.838.649-.492 0-.902-.22-.902-.488 0-.12.067-.228.22-.228.234 0 .257.336.66.336.193 0 .316-.086.316-.198 0-.138-.12-.16-.313-.209l-.32-.078c-.317-.078-.563-.208-.563-.574z"/>
                        <rect width="35.87" height="1" x="21.429" y="12.112" fill="#EAECEE" fill-rule="nonzero" rx=".5"/>
                        <rect width="35.87" height="1" x="21.429" y="14.907" fill="#EAECEE" fill-rule="nonzero" rx=".5"/>
                        <rect width="11.646" height="12.112" x=".326" y=".099" fill="#E4F4FF" fill-rule="nonzero" rx="3.05" transform="translate(4.634 1.764)"/>
                        <g transform="translate(4.634 1.764)">
                            <mask id="f" fill="#fff">
                                <use xlink:href="#e"/>
                            </mask>
                            <g fill-rule="nonzero" mask="url(#f)">
                                <path fill="#974B29" d="M4.666 11.393c-.064-.046-1.494-.711-1.494-.711-.637.21-.779 1.64-.843 2.49h1.519l.818-1.78zM7.184 11.393c.064-.046 1.494-.711 1.494-.711.637.21.779 1.64.843 2.49H8.002l-.818-1.78z"/>
                                <path fill="#F5B67B" d="M5.918 9.106h-.672v.423c0 .263-.043.21-.288.356-.097.081-.2.154-.31.217.299.96.512 2.194 1.096 3.059h.355c.584-.865.797-2.099 1.096-3.06a2.066 2.066 0 0 1-.31-.216c-.245-.135-.288-.082-.288-.356v-.423h-.679z"/>
                                <path fill="#A55334" d="M4.958 9.878c-.356.163-1.661.672-1.807.8.218.816.37 1.649.455 2.49H8.23c.085-.841.237-1.674.455-2.49-.146-.128-1.451-.637-1.807-.8.46.355-.711 1.344-.96 1.636l-.494-.551c-.047-.097-.9-.751-.466-1.085z"/>
                                <path fill="#8D4324" d="M5.811 11.464l.107.053.107-.053v1.686H5.81z"/>
                                <path fill="#F6BE81" d="M7.714 6.04a.847.847 0 0 0 .712 1.006.886.886 0 0 0 1.067-.682.903.903 0 0 0-.712-1.067.928.928 0 0 0-1.067.743zM4.257 6.04a.847.847 0 0 1-.711 1.006.886.886 0 0 1-1.067-.682.903.903 0 0 1 .71-1.067.928.928 0 0 1 1.068.743z"/>
                                <path fill="#F6C793" d="M8.458 2.867a2.707 2.707 0 0 0-2.039-1.12h-.042v-.032h-.79v.021h-.042a2.707 2.707 0 0 0-2.039 1.12 3.475 3.475 0 0 0-.508 2.28c.1 2.039.28 4.322 2.991 4.343 2.71.022 2.878-2.319 2.974-4.343a3.475 3.475 0 0 0-.505-2.269z"/>
                                <path fill="#BC8C34" d="M8.899 6.218c0-.078.426-2.188.323-3.084-.103-.896-.69-.939-.818-.957a.57.57 0 0 1-.192-.057 4.439 4.439 0 0 0-1.568-.668c-1.046-.26-2.526.523-3.337.081-.387.41-.163 1.203-.163 1.203a.662.662 0 0 0-.356.512c-.078.402.299 2.988.299 2.988s.16-1.996.405-2.273c0 0 1.725.316 4.848-.868.619-.242.399 2.365.559 3.123z"/>
                                <path fill="#D97752" d="M4.641 10.667c.316.42.767.719 1.277.847a8.355 8.355 0 0 1-.825-1.341.473.473 0 0 1 .114-.438c.057-.067.039-.22.039-.32-.776-.017-1.131.587-.605 1.252zM7.195 10.667c-.316.42-.767.719-1.277.847.317-.42.593-.87.825-1.341a.477.477 0 0 0-.114-.438c-.057-.067-.039-.22-.039-.32.776-.017 1.131.587.605 1.252z"/>
                            </g>
                        </g>
                    </g>
                    <path fill="#FFC7B0" fill-rule="nonzero" d="M104.21 106.548s-.881-21.455-6.309-29.027c-5.428-7.573-28.273-25.748-28.273-25.748s-1.451-2.461-4.734.253c-3.283 2.713-7.07 4.887-11.026 5.11-4.222.242-4.98 7.971 2.714 9.405 6.121 1.134 9.656-.63 9.656-.63l7.683 8.753c-4.624 11.695 4.183 43.251 20.192 39 8.077-2.13 10.098-7.116 10.098-7.116z"/>
                    <path fill="#F4A891" fill-rule="nonzero" d="M72.726 81.22c-.256 6.33 1.334 14.348 4.414 20.878a6.96 6.96 0 0 0 7.757 3.866c.27-.053.535-.132.79-.235 0 0-9.248-15.877-9.248-21.319v-4.5-.543c0-2.49.032-4.244.036-4.646v-.089l-8.344-9.87-1.025-5.51-1.138 4.98s-2.244.687-6.978.897c-.392.016-.8.03-1.227.042a13.139 13.139 0 0 1-5.919-1.177c.928 1.153 2.458 2.113 4.716 2.533.754.138 1.47.234 2.135.295 4.794.43 7.511-.929 7.511-.929l7.715 8.771a17.108 17.108 0 0 0-.967 3.913 26.625 26.625 0 0 0-.207 2.209c-.01.147-.016.291-.02.434zM64.254 102.073c9.841 18.222 18.278 21.586 36.485 9.845-13.327 1.871-25.826-1.977-36.485-9.845z"/>
                    <path fill="#FFE0D2" fill-rule="nonzero" d="M56.824 59.808a4.98 4.98 0 0 1 .437-3.322c-1.098.36-2.237.578-3.39.65a3.123 3.123 0 0 0-2.308 1.192 2.369 2.369 0 0 0 .132 2.013c.647 1.092 5.129-.533 5.129-.533z"/>
                    <path fill="#FFF" d="M108.522 110.791l-1.871-5.26-26.537 13.736 1.96 4.905z"/>
                    <path fill="url(#g)" d="M108.543 106.677l-29.35 15.34 23.371 87.953 40.498-10.17z"/>
                </g>
            </g>
        </g>
        <g transform="translate(20.963 15.373)">
            <path fill="#FFF" fill-rule="nonzero" d="M0 15.027V3.756C0 1.682 1.533 0 3.425 0h52.43c1.893 0 3.426 1.682 3.426 3.756v11.271c0 2.074-1.533 3.756-3.425 3.756h-8.433l-.107 6.047-4.926-6.047H3.422C1.533 18.787 0 17.101 0 15.027z"/>
            <path fill="#3EA37D" fill-rule="nonzero" d="M48.376 5.583a.585.585 0 0 0-.85 0 .636.636 0 0 0 0 .873l2.121 2.212a.585.585 0 0 0 .85 0l5.066-5.282a.636.636 0 0 0 0-.874.585.585 0 0 0-.85 0l-4.641 4.839-1.696-1.768z"/>
            <g fill="#FFDA46" fill-rule="nonzero">
                <path d="M5.731 14.768l.304.59.628.122-.44.485.084.666-.576-.29-.575.29.085-.666-.441-.485.628-.122zM8.06 14.768l.304.59.628.122-.441.485.085.666-.575-.29-.576.29.085-.666-.441-.485.628-.122zM10.39 14.768l.303.59.629.122-.442.485.085.666-.575-.29-.576.29.084-.666-.44-.485.628-.122zM12.718 14.768l.305.59.628.122-.44.485.085.666-.578-.29-.576.29.086-.666-.44-.485.628-.122zM15.048 14.768l.304.59.628.122-.44.485.084.666-.576-.29-.575.29.085-.666-.441-.485.628-.122z"/>
            </g>
            <rect width="24.689" height="1.863" x="20.799" y="6.988" fill="#1B99E5" fill-rule="nonzero" rx=".932"/>
            <path fill="#023757" fill-rule="nonzero" d="M21.01 3.317c0-.757.447-1.405 1.311-1.405.701 0 1.085.44 1.085.7 0 .172-.093.276-.276.276-.354 0-.25-.484-.809-.484-.383 0-.7.331-.7.913 0 .488.194.913.723.913.48 0 .47-.514.764-.514.149 0 .298.085.298.234 0 .388-.47.772-1.062.772-.839 0-1.334-.481-1.334-1.405zm3.171.365c0 .332.138.622.462.622s.462-.29.462-.622c0-.354-.145-.619-.462-.619-.317 0-.462.265-.462.619zm-.544 0c0-.574.35-1.021 1.006-1.021s1.006.447 1.006 1.021c0 .544-.264 1.025-1.006 1.025-.741 0-1.006-.48-1.006-1.025zM26 4.435V2.933c0-.164.097-.272.257-.272s.257.108.257.272v.07h.007a.767.767 0 0 1 .656-.342c.187 0 .421.086.522.343.153-.213.347-.343.641-.343.377 0 .678.171.678.66v1.114c0 .145-.06.272-.272.272-.212 0-.272-.127-.272-.272v-.977c0-.193-.085-.35-.298-.35-.209 0-.395.168-.395.421v.906c0 .145-.06.272-.272.272-.212 0-.272-.127-.272-.272v-.977c0-.193-.086-.35-.298-.35-.209 0-.395.168-.395.421v.906c0 .145-.06.272-.272.272-.213 0-.272-.127-.272-.272zm3.45.723v-2.24c0-.168.079-.257.247-.257.16 0 .246.09.246.257v.086h.007c.09-.231.31-.343.574-.343.455 0 .853.332.853 1.036 0 .522-.264 1.01-.838 1.01-.25 0-.436-.1-.537-.276h-.007v.727c0 .179-.108.272-.272.272-.164 0-.272-.093-.272-.272zm1.383-1.48c0-.32-.141-.585-.432-.592-.317 0-.436.283-.436.592 0 .28.104.608.436.604.347 0 .432-.35.432-.604zm.925.757V2.199c0-.18.108-.272.272-.272.164 0 .272.093.272.272v2.236c0 .179-.108.272-.272.272-.164 0-.272-.093-.272-.272zm2.698-.649h-1.23c0 .287.186.496.503.496.41 0 .41-.268.63-.268.13 0 .223.111.223.212 0 .328-.525.48-.853.48-.76 0-1.047-.513-1.047-.987 0-.633.384-1.058 1.028-1.058.626 0 .984.443.984.89 0 .187-.056.235-.238.235zm-1.23-.313h.954c-.03-.25-.216-.432-.459-.432-.272 0-.436.168-.495.432zm1.96.75V3.066h-.093c-.153 0-.216-.06-.216-.179 0-.12.063-.179.216-.179h.093v-.331c0-.18.108-.272.272-.272.164 0 .272.093.272.272v.331h.164c.16 0 .246.049.246.18 0 .13-.086.178-.246.178h-.164v1.088c0 .082.045.127.142.127h.078c.12 0 .19.067.19.183 0 .156-.134.242-.395.242-.395 0-.559-.164-.559-.485zm2.93-.437h-1.23c0 .287.186.496.503.496.41 0 .41-.268.63-.268.13 0 .223.111.223.212 0 .328-.525.48-.853.48-.76 0-1.048-.513-1.048-.987 0-.633.384-1.058 1.029-1.058.626 0 .984.443.984.89 0 .187-.056.235-.239.235zm-1.23-.313h.953c-.03-.25-.216-.432-.458-.432-.272 0-.436.168-.496.432z"/>
            <rect width="35.87" height="1" x="20.799" y="12.112" fill="#EAECEE" fill-rule="nonzero" rx=".5"/>
            <rect width="35.87" height="1" x="20.799" y="14.907" fill="#EAECEE" fill-rule="nonzero" rx=".5"/>
            <rect width="11.646" height="12.112" x=".326" y=".099" fill="#E4F4FF" fill-rule="nonzero" rx="3.05" transform="translate(4.169 1.764)"/>
            <g transform="translate(4.169 1.764)">
                <mask id="i" fill="#fff">
                    <use xlink:href="#h"/>
                </mask>
                <g fill-rule="nonzero" mask="url(#i)">
                    <path fill="#AD4723" d="M9.095 8.753c-.036.022-.562.637-.562.637s-.712-.462-2.134-.445c-1.423.018-2.06.43-2.06.43a1.778 1.778 0 0 1-.562-.86c-.163-.562-.302-2.198-.22-2.22.081-.02 5.979-.074 5.979-.074l-.441 2.532z"/>
                    <path fill="#F5B67B" d="M7.704 11.485l1.476-1.117c.647.214.832 2.049.9 2.906H8.533l-.83-1.789z"/>
                    <path fill="#D83A57" d="M8.373 10.97l.807-.609c.57.189.782 1.633.871 2.56H8.376l-.003-1.952z"/>
                    <path fill="#F5B67B" d="M6.377 9.159h-.68v.43c0 .267-.042.214-.294.356a2.095 2.095 0 0 1-.313.22c.302.975.523 2.23 1.113 3.113h.356c.594-.882.81-2.134 1.113-3.113a2.095 2.095 0 0 1-.313-.22c-.25-.139-.295-.082-.295-.356v-.43h-.687zM5.09 11.485l-1.476-1.117c-.648.214-.833 2.049-.9 2.906H4.26l.829-1.789z"/>
                    <path fill="#D83A57" d="M4.421 10.98l-.807-.608c-.57.188-.783 1.632-.872 2.56h1.675l.004-1.952z"/>
                    <path fill="#E84B66" d="M5.958 10.902c-.602-.22-.676-.865-.555-.957-.5.147-1.009.266-1.523.356h-.274c.115.403.195.814.242 1.23-.092.616-.451 1.067-.192 1.64h5.528c.26-.583-.1-1.024-.193-1.64.047-.416.128-.828.242-1.23H8.96a13.925 13.925 0 0 1-1.522-.356c.121.096.046.74-.555.957l-.256.843-.217.764L6 10.902h-.042z"/>
                    <path fill="#F6C793" d="M6.452 1.661H6.05v.032h-.043a2.75 2.75 0 0 0-2.073 1.138c-.491.669-.559 1.512-.52 2.32.1 2.073 1.26 4.4 3.045 4.417C8.245 9.586 9.4 7.224 9.5 5.15c.04-.807-.025-1.65-.52-2.319a2.75 2.75 0 0 0-2.073-1.138h-.042v-.05h-.402l-.011.018z"/>
                    <path fill="#CA501A" d="M7.84 2.461c-.026.114 0 .712.71 1.658.712.946.747 1.01.747 1.01s-.074 1.423-.064 1.366c.011-.057.388-1.444.388-1.444.103-.5.103-1.016 0-1.515-.178-.733-.405-1.007-.711-1.132a2.66 2.66 0 0 0-1.07.057zM3.55 4.585c-.121.139-.406.423-.406.423l.317 1.444.089-1.867z"/>
                    <path fill="#CA501A" d="M9.269 5.677c.032-.534.356-2.262.21-2.597-.62-1.533-3.201-2.408-3.792-.832-.181.473 1.345 0 1.451.63.143.828 1.17 2.226 2.13 2.799z"/>
                    <path fill="#CA501A" d="M7.978 2.64c.686.643-1.44 2.08-4.243 2.717-1.423-1.373.444-5.143 3.556-3.75l.687 1.032z"/>
                    <path fill="#CA501A" d="M3.208 4.087c-.178 1.252-.462 5.136 1.213 5.438-.63-.871-.672-2.82-.686-4.346 0-1.05-.064-1.675-.079-2.515-.24.44-.393.924-.448 1.423zM9.585 4.087c.178 1.252.463 5.136-1.212 5.438 1.067-1.48.729-4.809.764-6.857.24.44.393.921.448 1.419z"/>
                    <path fill="#FFF" d="M5.317 9.916l.224-.067.417 1.067a1.597 1.597 0 0 1-.74.391c-.356.025-.395-.683-.25-1.01.147-.327.35-.38.35-.38zM7.476 9.916l-.224-.067-.416 1.067c.207.194.463.329.74.391.356.025.395-.683.249-1.01-.146-.327-.349-.38-.349-.38z"/>
                    <path fill="#CA501A" d="M6.338 3.408c.114.024 1.131.12 1.131.12-.294.468-.705.85-1.191 1.11a5.74 5.74 0 0 1-1.964.765c.47-.195.915-.443 1.327-.74.246-.2.456-.441.622-.711l.075-.544z"/>
                    <path fill="#CA501A" d="M7.76 2.582c-.11-.039-1.027-.48-1.027-.48a3.18 3.18 0 0 0 .448 1.565 5.737 5.737 0 0 0 1.291 1.668 6.59 6.59 0 0 1-.754-1.316 2.845 2.845 0 0 1-.156-.946l.199-.49z"/>
                </g>
            </g>
        </g>
    </g>
</svg>
