<svg xmlns="http://www.w3.org/2000/svg" width="150" height="150" viewBox="0 0 150 150">
    <defs>
        <linearGradient id="a" x1="49.23%" x2="49.23%" y1="60.5%" y2="39.5%">
            <stop offset="2%" stop-color="#5F6767"/>
            <stop offset="48%" stop-color="#676B6C"/>
            <stop offset="51%" stop-color="#717576"/>
            <stop offset="62%" stop-color="#878A8B"/>
            <stop offset="72%" stop-color="#949899"/>
            <stop offset="81%" stop-color="#999C9D"/>
        </linearGradient>
    </defs>
    <g fill="none" fill-rule="evenodd">
        <circle cx="75" cy="75" r="74" fill="#1B99E5" fill-opacity=".1" fill-rule="nonzero" stroke="#1B99E5" stroke-width="2"/>
        <path fill="#CFD2D3" fill-rule="nonzero" d="M.065 119.471s-.922 1.719 5.63 3.15H142.83s4.588-.295 5.796-2.457v-1.185l-148.561.492z"/>
        <path fill="#F3F4F4" fill-rule="nonzero" d="M.098 116.005h148.584v3.815s.223.51-1.527.383H1.495s-1.368.384-1.495-.51l.098-3.688z"/>
        <path fill="#CFD2D3" fill-rule="nonzero" d="M141.781 118.235a.246.246 0 0 1-.221.264h-5.055a.246.246 0 0 1-.221-.264.248.248 0 0 1 .22-.272h5.056a.248.248 0 0 1 .221.272zM64.298 116.032s-.573 1.91 1.335 2.1h17.239s1.833.238 1.589-2.035l-20.163-.065z"/>
        <path fill="url(#a)" fill-rule="nonzero" d="M84.371 98.14v-.043a.25.25 0 0 0 0 .044z" transform="translate(0 18)"/>
        <path fill="#023757" fill-rule="nonzero" d="M134.073 115.988V48.264a5.604 5.604 0 0 0-5.587-5.59H20.209a5.606 5.606 0 0 0-5.59 5.59v67.724h119.454z"/>
        <path fill="#A5CFE9" fill-rule="nonzero" d="M18.461 46.869H130.23v64.964H18.461z"/>
        <g fill-rule="nonzero" transform="translate(40.304 18.932)">
            <path fill="#D9E0E2" d="M7.224.512l58.11 2.03a1.398 1.398 0 0 1 1.348 1.445l-2.873 82.267a1.398 1.398 0 0 1-1.446 1.347l-58.11-2.029a1.398 1.398 0 0 1-1.348-1.445L5.778 1.86A1.398 1.398 0 0 1 7.224.512z"/>
            <path fill="#EAEDF0" d="M3.532 2.95l54.907-1.917a3 3 0 0 1 3.103 2.893l2.76 79.064a3 3 0 0 1-2.893 3.103L6.502 88.01a3 3 0 0 1-3.103-2.893L.639 6.053A3 3 0 0 1 3.531 2.95z"/>
            <path fill="#FFF" d="M4.726 4.655h49.379l9.782 9.782V88.04c0 .772-.625 1.397-1.397 1.397H4.726a1.398 1.398 0 0 1-1.398-1.397V6.052c0-.771.626-1.397 1.398-1.397z"/>
            <path fill="#A4B3BC" d="M54.105 4.655l9.782 9.782h-8.385a1.398 1.398 0 0 1-1.397-1.397V4.655z"/>
            <path fill="#D0021B" d="M9.807 19.541a.235.235 0 0 0-.05.039.182.182 0 0 1-.052.04l-.064-.04-.038-.047a.235.235 0 0 1-.041-.059c-.009.002-.015.006-.018.011-.004.005-.01.01-.018.011-.007.01-.019.018-.036.022a.119.119 0 0 0 .025.05c.012.015.011.029-.004.041.002.01 0 .019-.007.03-.014.021-.025.033-.033.035a4.559 4.559 0 0 1-.216.256l.012.052.044.072a.52.52 0 0 0 .041.059l.012.052c.002.009-.009.03-.033.063-.025.033-.036.054-.034.063a.368.368 0 0 1-.003.103.368.368 0 0 0-.004.104c-.017.004-.027.002-.029-.007-.039-.01-.06-.023-.064-.04l-.03-.13-.318-.188-.079.018-.03.048c-.013.022-.016.068-.009.14a.545.545 0 0 1 .004.136.257.257 0 0 0-.013.093.47.47 0 0 0 .003.102l.03.007c.008-.002.016-.009.022-.02.01-.001.016-.01.022-.025a.101.101 0 0 1 .032-.041c-.004-.018.006-.052.03-.104a.67.67 0 0 0 .045-.106c.01.007.024.026.041.06a.402.402 0 0 1 .028.061c-.005.02-.016.059-.035.118-.018.06-.03.099-.034.118l.09.391a.832.832 0 0 0 .074.141c.045.077.07.124.074.141l.024.104a.639.639 0 0 0-.12.049.666.666 0 0 1-.106.045.95.95 0 0 0-.073.071.95.95 0 0 1-.072.072l-.033-.143-.02.032c-.007.01-.015.017-.024.019l-.013.003-.046.038a.103.103 0 0 1-.036.022 1.77 1.77 0 0 0 0 .234c.006-.01.029-.02.068-.03.039-.009.064-.01.075-.003.017-.004.046 0 .085.014.04.014.062.03.066.047.004.017-.009.05-.04.098-.03.048-.049.073-.057.075a.323.323 0 0 1-.015.114.522.522 0 0 1-.031.103.189.189 0 0 1-.045.072c-.026.03-.038.048-.036.057l-.117.027a.411.411 0 0 0-.143.005.641.641 0 0 1-.156.009l-.077.024c-.042.015-.069.019-.08.012-.001-.009-.015-.02-.041-.032-.026-.012-.04-.027-.045-.044l-.069-.3a.295.295 0 0 0-.07-.094 2.417 2.417 0 0 1-.082-.09l-.043-.183a.253.253 0 0 1 .007-.091.253.253 0 0 0 .006-.091.241.241 0 0 0 .015-.086.39.39 0 0 0-.001-.096l.062-.028.029.007.026-.006a.12.12 0 0 1 .063.006c.025.008.042.011.05.01a.886.886 0 0 0 .012-.127.603.603 0 0 0 0-.123c-.003-.01-.018-.026-.047-.052-.029-.025-.044-.042-.046-.05a.42.42 0 0 1 .036-.112c.026-.066.043-.104.05-.114a.37.37 0 0 0-.037-.068.223.223 0 0 0-.065-.074.156.156 0 0 1-.045-.017l-.032-.02-.018-.078c-.002-.009.004-.02.02-.032a.103.103 0 0 1 .036-.022.73.73 0 0 1 .077-.053.228.228 0 0 0 .064-.049l-.024-.104a.95.95 0 0 0-.063-.034c-.03-.015-.047-.028-.05-.036-.01-.007-.016-.015-.018-.023l-.006-.026.004-.043a.821.821 0 0 1-.011-.107.445.445 0 0 1 .002-.11.162.162 0 0 1 .007-.057l.018-.073a.374.374 0 0 0 .104.066c.057.028.096.048.117.062l.105-.024a.468.468 0 0 1-.006-.116.63.63 0 0 1 .01-.105l.027-.061c.033-.054.049-.085.047-.093a.887.887 0 0 0-.03-.186.693.693 0 0 0-.051-.167c.04-.027.056-.054.05-.08a.22.22 0 0 0 .018-.038.324.324 0 0 1 .029-.055A.21.21 0 0 0 8.34 19a.218.218 0 0 0-.033-.054.218.218 0 0 1-.033-.055.318.318 0 0 1-.059-.075.368.368 0 0 1-.049-.092l-.02-.091c.001.008.012.015.031.02.02.004.034.006.043.004a.797.797 0 0 0 .122.054c.06.023.096.037.106.044l.079-.018a.151.151 0 0 1 .04-.064.655.655 0 0 1 .056-.055 1.335 1.335 0 0 0-.042-.12c-.024-.064-.029-.106-.015-.127a.153.153 0 0 1 .002-.049.153.153 0 0 0 .003-.049.11.11 0 0 1-.001-.034.11.11 0 0 0-.001-.034l-.022-.036-.036-.033c-.019-.005-.03-.016-.035-.033l.118-.027a.189.189 0 0 0 .045-.072.58.58 0 0 1 .032-.07c-.002-.008 0-.057.007-.146a.832.832 0 0 0 .005-.159.31.31 0 0 1 .01-.105.363.363 0 0 1 .036-.111l.02-.032c.007-.011.01-.02.007-.03l.167.127.067-.125-.127-.548.067-.07c.034-.008.056.005.064.04a.635.635 0 0 1 .06.11c.027.057.043.1.05.125l.044.196c.008.035.03.048.065.04l.065-.015a.145.145 0 0 0 .014-.058.219.219 0 0 0 0-.055.361.361 0 0 0-.015-.127.361.361 0 0 0-.041-.121.13.13 0 0 0 .059-.041c.022-.024.037-.036.046-.038.02-.032.039-.05.056-.054l-.012-.053-.073-.017a.158.158 0 0 0-.07-.005c-.001-.008-.01-.016-.025-.021a.22.22 0 0 1-.039-.019.55.55 0 0 0-.107-.078c-.059-.037-.09-.06-.091-.068l-.064-.04-.037-.157c-.002-.009.003-.017.015-.024a.084.084 0 0 0 .029-.027.355.355 0 0 1 .078-.107.968.968 0 0 0 .091-.11c.017-.005.03-.021.037-.05a.162.162 0 0 0 .007-.057c.009-.002.017-.008.023-.02.014-.02.025-.032.033-.034a.253.253 0 0 1 .007-.091.298.298 0 0 0 .01-.078.42.42 0 0 1-.01-.066.41.41 0 0 0-.005-.054c.035-.008.06-.023.073-.044a.838.838 0 0 1 .097-.084c.043-.033.063-.054.061-.063l-.09-.39c-.008-.036 0-.056.027-.062.015-.013.046-.02.091-.021a.668.668 0 0 0 .081-.005l-.054-.235a.145.145 0 0 0 .095-.063c.026-.006.046-.029.06-.069.014-.04.023-.07.028-.089l-.048-.085c-.01-.007-.019-.023-.025-.049a.37.37 0 0 0 .068-.036.228.228 0 0 0 .064-.05.298.298 0 0 1 .01-.077.294.294 0 0 1 .032-.097l-.012-.052a.287.287 0 0 0-.035-.06 1.229 1.229 0 0 1-.125-.273c-.004-.018.007-.053.031-.104a.67.67 0 0 0 .045-.107l.117-.027a.119.119 0 0 1 0-.055.21.21 0 0 1 .028-.061l.074-.065c.034-.031.054-.056.058-.076.018-.004.035-.019.052-.046l.045-.072c.006.026.03.06.07.1.042.041.073.064.092.069.022.013.058.014.11.002.053-.013.085-.03.099-.05l.783.12c.004.018.02.035.046.052a.246.246 0 0 1 .06.048c.002.009.008.016.019.023.01.007.02.01.029.007a.287.287 0 0 0 .119-.02 2.96 2.96 0 0 1 .102-.031c.002.009.009.016.02.023.02.013.036.019.045.017.008-.002.014.001.016.01a.42.42 0 0 0-.064.022c-.025.01-.04.025-.045.044-.017.004-.03.02-.036.05a.162.162 0 0 0-.008.057.63.63 0 0 1-.039.098c-.021.046-.03.073-.029.082l.01.073.013.087c.006.026.017.062.032.109.016.047.024.075.026.083a.66.66 0 0 0 .094.17.22.22 0 0 1 .034.027.22.22 0 0 0 .034.027l.117-.027a.501.501 0 0 0 .068.115l.103.148c.01.006.023.022.038.046s.027.04.038.046a.26.26 0 0 0 .05.064l.064.074.036.033a.578.578 0 0 0 .06.117c.038.06.065.11.084.152l.021.092c.004.017.02.057.048.119a.907.907 0 0 1 .048.12l.016.01c.011.006.017.011.018.016.001.004.007.01.018.016a.21.21 0 0 0 .05.044.607.607 0 0 1 .06.137.607.607 0 0 0 .06.137c.003.018.027.042.07.073.045.031.068.051.07.06l.069.3c.002.008.015.024.038.046s.04.032.048.03a.534.534 0 0 0 .135.079.534.534 0 0 1 .135.078l.009.04c-.007.01-.026.024-.06.04-.032.017-.052.031-.058.042l.02.091c.011.007.026.022.045.045.02.023.039.037.058.041l.064.04.07.094c.034.047.057.079.07.094.008-.002.018 0 .029.007.021.013.036.02.045.017a.21.21 0 0 0 .061.027.677.677 0 0 1 .062.15c.03.086.054.135.076.148.002.009.035.017.101.025.066.007.109.013.128.018.011.007.02.028.028.062a.22.22 0 0 1 .002.069c.008.034.034.047.078.037l.039-.01.04.026c.016.01.025.02.027.028l-.04.036a.69.69 0 0 1-.087.069.69.69 0 0 0-.087.068l-.04.036a.06.06 0 0 1 0 .028.06.06 0 0 0 0 .028l.005.026c.002.008.009.016.02.023l.063.04a.23.23 0 0 1 .08.05c.035.029.063.05.084.063.005-.02.014-.049.028-.089a.181.181 0 0 1 .043-.078c-.002-.009.004-.022.019-.039.014-.017.026-.026.034-.029.014-.02.03-.034.046-.038.004.018.01.049.015.093.006.045.01.076.015.093a.156.156 0 0 0-.017.045c-.007.01-.008.025-.004.042l.015.065a.156.156 0 0 0 .06.082l.045.196c.004.018.04.05.105.1.066.048.095.092.086.131-.01.002.004.01.04.025.035.015.054.026.056.035l.02.091c.014.016.043.062.088.138.045.077.081.135.109.174.004.018-.012.067-.049.149-.036.081-.052.13-.048.148a.318.318 0 0 0 .08-.039.318.318 0 0 1 .08-.039c.011.007.029.021.052.043.023.022.04.037.051.043.008.035.03.048.064.04.004.018.02.028.048.03l.059.015c.002.008.007.012.016.01l.026-.006c.01.006.02.009.029.007.004.017.025.06.064.129s.07.114.093.136a.49.49 0 0 0 .06.076.182.182 0 0 1 .039.053.55.55 0 0 0 .046.113 5.289 5.289 0 0 1 .149.316c.02.045.031.077.035.094.013.016.023.05.031.103l.015.093a.162.162 0 0 0 .031.048c.02.023.033.033.042.031l.024.105a1.15 1.15 0 0 1-.145.115c-.09.067-.137.11-.142.13a.162.162 0 0 1-.007.056c-.007.03-.015.045-.024.047a.66.66 0 0 1-.084.053.467.467 0 0 1-.073.038l-.047.038c-.037.036-.058.046-.062.028a.156.156 0 0 1-.045-.017c-.02-.005-.042-.022-.067-.053a.631.631 0 0 1-.05-.037.631.631 0 0 0-.05-.036l-.018-.078a.103.103 0 0 0 .037-.023.103.103 0 0 1 .036-.022l-.012-.052a.156.156 0 0 0-.046-.017.156.156 0 0 1-.045-.017c-.01-.007-.03-.002-.058.014-.029.015-.044.019-.046.01a.103.103 0 0 0-.022-.036L15 20.897a.35.35 0 0 1-.062-.089.673.673 0 0 1-.049-.092.706.706 0 0 1-.12-.137.706.706 0 0 0-.121-.136.26.26 0 0 0-.05-.065.26.26 0 0 1-.049-.064.298.298 0 0 0-.042-.066l-.08-.105a1.34 1.34 0 0 1-.072-.107.228.228 0 0 0-.05-.064.886.886 0 0 1-.066-.108 8.555 8.555 0 0 0-.215-.37 2.268 2.268 0 0 1-.08-.139c-.01.002-.03-.025-.06-.082l-.045-.072a.73.73 0 0 0-.091-.157l-.01-.04c-.008.002-.02-.002-.036-.012l-.04-.025a.428.428 0 0 1-.05-.092.685.685 0 0 1-.035-.094l-.024-.105a.31.31 0 0 0-.103-.058.947.947 0 0 1-.116-.056.357.357 0 0 0-.124-.033.567.567 0 0 0-.105-.01.918.918 0 0 0-.153.083c-.084.052-.13.078-.14.08l-.077.018c-.01.002-.027-.007-.055-.028a.206.206 0 0 0-.07-.039l-.105.024a.95.95 0 0 0-.073.072c-.033.035-.058.055-.076.059a2.96 2.96 0 0 0-.102.03 2.15 2.15 0 0 1-.13.037l-.156.036a.297.297 0 0 1-.094.008.368.368 0 0 1-.104-.003.46.46 0 0 0-.09-.007.182.182 0 0 0-.053.04.182.182 0 0 1-.053.04c-.007.01-.05.022-.129.036l-.145.026a.37.37 0 0 0-.067.037.318.318 0 0 1-.08.039c-.016.012-.052.023-.11.032l-.099.016c-.033.017-.1.046-.2.087-.1.042-.163.065-.19.071a1.415 1.415 0 0 1-.185-.026l-.038.01-.05.08c-.015.012-.046.02-.091.02-.046.002-.072.008-.078.019l-.075.065c-.034.03-.053.056-.058.075a.564.564 0 0 0 0 .179c-.017.004-.022.003-.014-.004.007-.006.002-.007-.015-.003l-.072-.045c-.027-.017-.041-.03-.043-.038-.011-.007-.02-.026-.027-.056-.006-.026-.006-.041 0-.047h-.001zM8.48 22.402l.065-.015-.012-.052-.065.015.012.052zm-.067-.287l.063-.028c.034-.008.048-.03.04-.064l.004-.042c-.002-.009-.006-.015-.011-.018-.006-.003-.01-.01-.011-.018l-.003-.013c-.004-.018-.026-.033-.066-.047a.47.47 0 0 1-.076-.03l.06.26zm.142-.458c-.026.006-.036.022-.03.048.006.026.022.036.048.03.026-.006.036-.022.03-.048-.006-.026-.022-.036-.048-.03zm.572-.736a.103.103 0 0 1 .004-.043.103.103 0 0 0 .004-.042l.01-.016c-.002-.008-.001-.013.003-.014.004-.001.006-.006.004-.015a.406.406 0 0 1 .07-.078l.075-.065c-.002-.009.02-.025.064-.05a.47.47 0 0 1 .094-.042.11.11 0 0 0 .03-.014.11.11 0 0 1 .032-.014.09.09 0 0 1-.011.072c.006.026-.004.042-.03.048a.275.275 0 0 1-.084.053c-.05.025-.073.042-.07.051a.145.145 0 0 0-.096.063.22.22 0 0 1-.027.034.22.22 0 0 0-.026.033l.015.066a.22.22 0 0 1 .047.057.22.22 0 0 0 .048.058l-.065.015a.153.153 0 0 0-.024-.043.164.164 0 0 1-.026-.055c-.011-.007-.017-.015-.02-.023-.01-.007-.017-.019-.021-.036zm-.159-.925c.04-.028.052-.072.038-.133-.009.002-.018 0-.029-.007-.009.002-.016.002-.021-.002-.005-.003-.012-.004-.021-.002l.033.144zm-.335.036a.22.22 0 0 0 .019-.039.324.324 0 0 1 .028-.054l-.006-.027-.065.016.024.104zm.774-.454c-.026.006-.035.027-.027.062.008.034.025.049.051.043.018-.004.022-.024.014-.058-.008-.035-.02-.05-.038-.047zm-.793.074c.006.026.022.036.048.03.01.006.03.007.055 0l.026-.005-.012-.052-.117.027zm1.865-.43l.052-.013-.012-.052-.052.012.012.052zm-1.964 0c-.002-.01 0-.019.007-.03l.02-.032.007-.029-.022-.036c-.01.002-.019 0-.03-.007-.01-.007-.017-.014-.019-.023l.037.156zm-.123-.233c-.026.006-.035.024-.028.054.007.03.023.043.05.037.034-.008.048-.027.04-.058-.006-.03-.027-.041-.062-.033zm3.78-.818c-.005-.026-.021-.036-.047-.03-.026.006-.036.022-.03.048.032.02.058.014.078-.018zm.81-.187c.002-.028-.008-.04-.03-.035-.021.006-.029.021-.023.047.022.014.039.01.052-.012zm-.04-.17c-.026.007-.034.03-.025.068.009.04.026.056.052.05.026-.006.035-.029.026-.068-.01-.039-.027-.055-.053-.05zm-1.585.215c-.017.004-.022.022-.015.052.007.03.019.044.036.04.044-.01.062-.03.055-.061-.007-.03-.032-.04-.076-.03zm.07-.057a.156.156 0 0 0 .1.018c.01.007.027.01.05.01.023-.001.044 0 .063.005a.253.253 0 0 0 .081-.005l.392-.09c.008-.002.054-.022.137-.06.083-.037.137-.058.163-.064.018-.004.074-.008.17-.012.095-.004.147-.007.156-.009l.117-.027a3.513 3.513 0 0 0-.038-.135c-.022-.073-.043-.116-.064-.13-.006-.026-.042-.07-.107-.133a1.043 1.043 0 0 0-.145-.124c-.002-.009-.02-.023-.051-.043a.287.287 0 0 0-.078-.037 3.594 3.594 0 0 1-.068-.088.363.363 0 0 0-.081-.084c-.02-.005-.038-.026-.056-.063a.524.524 0 0 1-.03-.068 2.484 2.484 0 0 1-.081-.057c-.044-.031-.067-.051-.069-.06a.41.41 0 0 1-.067-.08 2.8 2.8 0 0 0-.117-.152 7.978 7.978 0 0 1-.135-.168 6.78 6.78 0 0 0-.106-.133.814.814 0 0 0-.113-.16 1.115 1.115 0 0 1-.134-.195.52.52 0 0 1-.041-.06l-.044-.072-.038-.046a.119.119 0 0 1-.026-.05.805.805 0 0 0-.056-.124 1.108 1.108 0 0 1-.053-.11.31.31 0 0 1-.054-.057.088.088 0 0 0-.048-.03l-.021-.091a.168.168 0 0 0-.058-.042.351.351 0 0 0-.068-.026l-.029-.007c-.009.002-.012.008-.01.016-.005.02-.011.06-.02.122a.43.43 0 0 0-.007.118l.015.065c.002.01.019.021.05.037.03.016.047.028.05.037a.893.893 0 0 1 .013.086c.004.04.012.063.023.07a.119.119 0 0 0 .025.05l.038.045.081.352a.228.228 0 0 0-.08-.016.73.73 0 0 1-.091-.013l-.079.018.012.053c.004.017.012.029.022.036a.464.464 0 0 1 .077.064c.03.03.051.053.064.068l-.04.01a2.958 2.958 0 0 0-.129-.026 2.958 2.958 0 0 1-.13-.025l-.051.012-.02.032c-.007.01-.01.02-.007.03l-.066.014c-.019-.004-.036-.019-.05-.043a.219.219 0 0 1-.026-.049l-.17.04.089.144c.01.006.053.012.128.018a.477.477 0 0 1 .128.019l.036.156c.004.018.02.041.05.07.03.03.055.048.074.053l-.04.064a.832.832 0 0 1-.004.159.469.469 0 0 1-.03.165l-.041.064a.156.156 0 0 1-.017.045c-.005.02-.01.032-.019.039-.007.006-.01.014-.008.022a.897.897 0 0 0-.02.156c-.025.006-.042-.009-.05-.043a.287.287 0 0 1-.034-.116 2.26 2.26 0 0 0-.02-.12c-.005-.016-.02-.034-.047-.05-.026-.017-.044-.024-.053-.022l-.035.056a.246.246 0 0 1-.048.06.092.092 0 0 0-.01.05c.002.022.003.038.005.046a.149.149 0 0 0 .002.069l.027.117c.004.017.013.047.028.09l.024.076c.004.018.015.056.034.116.018.06.034.098.046.113l.06-.22.052-.012c.002.01.01.023.023.043.014.02.023.038.027.056l-.023.108a.393.393 0 0 0-.013.092l.015.066c.032.02.058.032.077.037a.21.21 0 0 0 .061.027l.496-.115c.002.009.013.016.032.02.02.005.033.006.042.004a.119.119 0 0 0 .05-.025c.03-.025.05-.039.058-.04zm-1.147.031c-.013.022-.02.037-.017.046l.051.221c.035-.008.05-.025.043-.05a.368.368 0 0 1 .004-.105.46.46 0 0 0 .006-.09c-.002-.01-.014-.02-.035-.034l-.032-.02-.02.032zm-.632.119a.37.37 0 0 0 .036.067c.022.036.044.06.065.074l.032.02c.011.007.02.01.03.007l.208-.048a.156.156 0 0 0 .017-.045c.005-.02.011-.032.019-.039.007-.006.01-.018.005-.035a1.435 1.435 0 0 1-.007-.122 1.047 1.047 0 0 0-.01-.135l.046-.093-.036-.157a.22.22 0 0 1-.047-.057.897.897 0 0 0-.051-.071c-.008-.035-.025-.05-.051-.043a.162.162 0 0 1-.008.056c-.007.03-.02.046-.036.05-.012.03-.05.094-.114.191a.978.978 0 0 1-.143.184l.045.196zm-.809.186c.002.01-.008.023-.031.042-.023.02-.034.033-.032.042-.008.002-.012.007-.01.016.002.008-.001.014-.01.016l.105-.024-.022-.092zm.76-.697l.065-.015c-.009.002-.014-.001-.016-.01l-.006-.026-.064-.04.02.091zm.82-1.686l.055-.054-.065.015.01.039zm-.69.05c-.026.005-.035.026-.027.06.008.035.025.05.051.043.026-.006.035-.026.027-.06-.008-.035-.025-.05-.051-.044zm-.454-.006c-.026.006-.036.027-.027.061.008.035.025.05.05.044.018-.005.023-.024.015-.059-.008-.034-.021-.05-.038-.046zm.558-1.626l-.009-.039-.078.018.087.021zm8.97 4.11c-.014-.06-.01-.107.01-.14a.145.145 0 0 0 .014-.113.447.447 0 0 0-.06-.144.411.411 0 0 1-.058-.13l-.024-.105a.182.182 0 0 1 .013-.065.182.182 0 0 0 .012-.064.41.41 0 0 0-.069-.06c-.033-.024-.058-.035-.075-.03a4.388 4.388 0 0 0-.05-.182 4.554 4.554 0 0 1-.045-.168l-.069-.3a.894.894 0 0 1-.017-.312.453.453 0 0 1 .042-.174.27.27 0 0 0 .013-.182c-.012-.052-.053-.07-.122-.054l-.046.038c-.007.011-.02.018-.037.022l-.026.006c-.1.042-.158.078-.174.11-.015.03-.016.058-.001.082a.619.619 0 0 1 .036.067c.01.02-.012.037-.064.05-.009.001-.037-.02-.084-.064a.306.306 0 0 0-.099-.073l-.039.009c.001.045 0 .091-.002.138a.753.753 0 0 1-.019.128c-.002-.009-.015-.015-.039-.019a.07.07 0 0 0-.058.014c-.009.002-.025.024-.047.065-.022.042-.038.064-.047.066l-.023.02-.026.005c-.008.002-.018 0-.029-.007-.017.004-.06-.011-.127-.046-.068-.035-.103-.056-.105-.065l-.029-.007c-.043.01-.06.046-.05.108.01.062-.016.1-.077.114l-.04.009c-.008.002-.013-.002-.015-.01-.009.002-.027-.008-.055-.029s-.046-.03-.055-.029c-.017.004-.036.023-.056.055-.02.032-.038.05-.056.054l-.01.016a.611.611 0 0 1-.173-.036 6.383 6.383 0 0 0-.205-.055l-.064-.04c.034-.009.046-.039.034-.09-.01-.044-.066-.086-.167-.127l-.016-.01c-.035.008-.055.038-.061.09a.368.368 0 0 0-.004.103c.002.01.01.016.026.022.015.006.023.013.025.022l.006.026c.002.008-.002.019-.013.03-.011.012-.016.022-.014.03l-.026.007a.28.28 0 0 1-.117 0 2.773 2.773 0 0 1-.123-.027c.008-.048.04-.076.098-.085.057-.008.079-.043.065-.104a.346.346 0 0 0-.117-.206.284.284 0 0 1-.107-.168 1.343 1.343 0 0 1-.016-.1c-.007-.048.013-.073.058-.075l.04.17a.391.391 0 0 0 .023-.047c.009-.02.012-.035.01-.043l-.009-.04a.893.893 0 0 0-.026-.083.277.277 0 0 0-.039-.08.565.565 0 0 0-.132.113.268.268 0 0 0-.067.153c-.03-.011-.067-.06-.11-.147-.043-.086-.062-.139-.057-.158-.004-.017.003-.037.02-.06.018-.022.036-.035.053-.04l.097.06c.024-.014.033-.032.028-.054l-.016-.072a.149.149 0 0 1-.002-.068c.004-.02.033-.035.085-.047l.026-.006.035.033c.021.014.04.018.058.014.01.007.025.008.042.004.026-.006.05-.025.07-.057l.026-.006a.33.33 0 0 1 .155.02c.069.02.127.034.175.041a.54.54 0 0 1 .167.01c.02.009.03.02.028.034a.169.169 0 0 1-.01.044c-.006.015.014.022.06.02-.025-.104.02-.169.133-.195a.207.207 0 0 1 .096-.002c.029.007.056.008.082.002l.026-.006a.105.105 0 0 1 .022-.026.105.105 0 0 0 .022-.025l-.01-.04a.415.415 0 0 1-.047-.085c-.018-.041-.033-.065-.044-.072l-.009-.039c.009-.002.016-.01.022-.026.005-.015.013-.023.021-.025a.259.259 0 0 1 .06.11c.016.05.046.071.09.061a.153.153 0 0 0 .11-.087c.022-.046.067-.077.137-.093.052-.012.09-.007.113.015.023.022.057.028.1.018a.253.253 0 0 0-.03-.075c-.016-.024-.001-.042.042-.052l.026-.006.057.036c.026.016.044.024.053.022l.026-.006a.297.297 0 0 0 .052-.13.419.419 0 0 0-.012-.113.238.238 0 0 0-.033-.082c-.013-.02-.044-.033-.092-.04.003-.029.015-.045.037-.05l.072-.017a.376.376 0 0 0 .07-.023c.02-.01.028-.027.022-.053a.307.307 0 0 0-.047-.085 3.323 3.323 0 0 0-.09-.124.681.681 0 0 0-.1-.107c-.035-.029-.06-.041-.078-.037l-.093-.404c.056.005.087.04.092.102.005.063.032.098.08.105.06-.014.086-.043.076-.086.002-.028-.013-.073-.045-.134a.335.335 0 0 0-.113-.132l.052-.012a.252.252 0 0 1 .103-.003.222.222 0 0 0 .089 0c.07-.016.105-.08.107-.19.002-.11.025-.188.07-.235l-.067-.287c.032.02.066.026.1.018.01-.002.02-.014.033-.035.014-.022.026-.029.037-.022.028.002.066.019.114.049a.18.18 0 0 1 .087.11c-.07.016-.111.033-.126.05-.014.017-.014.056 0 .117l.018.078.1-.105c.006-.011.015-.01.027 0 .012.011.018.021.02.03.011.006.018.028.022.063a.71.71 0 0 0 .011.08.301.301 0 0 0 .056-.026.287.287 0 0 1 .069-.03c.073.001.138.071.192.21.055.138.106.289.153.452.047.163.097.31.15.44.052.13.114.186.183.17.044-.01.067-.03.07-.057l.286-.067c-.002-.008.002-.014.01-.016.009-.002.017-.008.023-.019a.156.156 0 0 1 .033-.035l.053-.012.104.065c.048.03.078.053.091.069-.061-.069-.063-.135-.004-.198a.36.36 0 0 1 .179-.117.31.31 0 0 1 .06-.007c.023-.001.035.003.037.012.017-.004.035.012.053.05a.458.458 0 0 1 .032.081c.05-.02.074-.049.07-.085a.1.1 0 0 1 .04-.092c.07.067.145.09.223.073a.33.33 0 0 0 .187-.112.33.33 0 0 1 .241-.118.41.41 0 0 0 .054-.005l.04.06c.022.012.04.008.053-.013.009-.002.016-.008.023-.019l-.033-.143c.032.02.07.025.113.015.037 0 .106-.011.205-.034.1-.023.167-.043.2-.06a.156.156 0 0 0-.017.045.156.156 0 0 1-.017.046l.019.023c.043-.01.067-.037.07-.079.005-.042.042-.07.111-.087.01.044.01.075.002.096-.01.02-.009.052.001.096a.341.341 0 0 1 .122-.008.341.341 0 0 0 .122-.007c.043-.01.067-.025.072-.045.005-.019.025-.033.06-.04.008-.003.018 0 .028.006.004.018.012.03.022.036l.006.027c.002.008.008.012.017.01.01.006.03.015.06.027.03.011.047.021.049.03l-.021.087a.52.52 0 0 0-.011.071.52.52 0 0 1-.011.071l.221-.05a.165.165 0 0 1-.005.097.165.165 0 0 0-.005.097l.003.013c.03.011.063.015.1.011a.107.107 0 0 1 .088.028.259.259 0 0 0-.08.073l.01.04c.004.017.02.057.048.119a.652.652 0 0 0 .061.116l.006.026c.004.018-.023.038-.082.06a2.517 2.517 0 0 1-.204.068l-.232.067a1.035 1.035 0 0 0-.165.059l-.026.006a.287.287 0 0 1-.077-.037c-.032-.02-.057-.028-.074-.024a.162.162 0 0 0-.048.031.158.158 0 0 1-.06.035.259.259 0 0 1-.08.073l-.026.006a.415.415 0 0 1-.227-.002.32.32 0 0 0-.175-.015l.012.052c-.122.029-.169.103-.14.225l-.027.006a1.358 1.358 0 0 0-.07-.038c-.037-.02-.06-.028-.068-.026-.018.004-.03.02-.037.05a.225.225 0 0 1-.02.06c-.06.022-.104.016-.135-.018a.599.599 0 0 1-.082-.118 1.297 1.297 0 0 0-.077-.126c-.028-.04-.063-.055-.107-.045l-.013.003a.084.084 0 0 1-.028.028c-.012.007-.017.015-.015.024a.287.287 0 0 0 .035.06c.02.032.036.047.044.045l-.052.012c-.017.004-.046 0-.086-.015-.04-.013-.068-.018-.085-.014l-.033.214c-.028-.04-.053-.061-.077-.065a.363.363 0 0 0-.265.102.176.176 0 0 0-.049.176l-.032-.02-.006-.026c-.018-.078.004-.154.064-.228.061-.073.101-.149.12-.226-.002-.009-.02-.023-.051-.043l-.04.009a.332.332 0 0 1-.042.085l-.045.072-.078.018c-.03.026-.042.056-.034.09.008.035.019.072.032.11.013.038.02.073.018.106-.002.032-.029.054-.081.066-.035.008-.056-.005-.064-.04s-.03-.048-.065-.04c-.052.012-.082.049-.09.11-.01.062-.011.133-.006.215.005.08.011.16.02.235.008.076.002.13-.018.162-.013.022-.024.033-.033.035-.007.011-.014.018-.023.02l-.045-.196-.04.009a.093.093 0 0 1-.04.002.06.06 0 0 0-.027 0c-.083.037-.128.08-.136.127a.475.475 0 0 0 .013.176c.044-.01.086-.017.126-.022.04-.005.055.03.045.106a.541.541 0 0 0 .097-.084l.081-.094c.085.09.148.201.187.334.04.133.074.26.102.382l.048.208a.657.657 0 0 0-.053.185 1.765 1.765 0 0 0-.02.21c-.003.07-.007.13-.013.182-.007.052-.014.078-.023.08-.007.011-.045.022-.116.034l-.132.024c-.041.018-.059.061-.052.129.006.067-.005.117-.034.152a6.112 6.112 0 0 0-.19-.114c-.075-.043-.134-.059-.177-.049.022.096.04.16.052.194.012.034-.036.073-.145.116a.768.768 0 0 1-.067-.17l-.04-.176zm-.036-.514a.352.352 0 0 0 .081.112c.035.033.083.043.144.029a4.503 4.503 0 0 0-.055-.207.247.247 0 0 0-.143-.173.369.369 0 0 0 .006.115c.009.058-.002.099-.033.124zm-1.275-1.299a.165.165 0 0 0-.035.146l.02.023a.182.182 0 0 0 .021-.142l-.006-.027zm1.674-.304a.1.1 0 0 0 .03-.075.42.42 0 0 0-.008-.067l-.052.012.03.13zm1.704-.832c-.018.004-.023.02-.016.051.007.03.02.044.037.04.017-.004.022-.021.015-.052-.007-.03-.02-.043-.036-.04zm-4.522 1.057c.052-.012.068-.061.048-.148l-.079.018.03.13zm5.016-1.295c-.017.004-.023.021-.015.052.007.03.019.043.036.04.026-.007.036-.025.029-.056-.007-.03-.024-.042-.05-.036zm-5.274 1.012l.052-.013-.018-.078-.052.012.018.079zm4.213-1.028c-.02-.005-.027.004-.022.025.005.022.016.031.034.027.013-.021.01-.039-.012-.052zm-3.544.653l.048.03.026-.006-.044-.072-.03.048zm-.692.036c.004-.019-.004-.026-.026-.021-.022.005-.03.016-.026.033.02.014.038.01.052-.012zm4.425-1.117c-.017.004-.022.02-.015.051.007.03.019.044.036.04.018-.004.023-.021.016-.052-.007-.03-.02-.043-.037-.04zm.254-.21l.012.08c.005.044.026.062.06.054.052-.012.088-.047.106-.107a.297.297 0 0 0 .013-.154c-.01-.043-.046-.058-.107-.044a.203.203 0 0 0-.057.02.293.293 0 0 0-.051.047l.024.104zm-1.842.233c-.017.004-.023.019-.017.045.006.026.018.037.035.033.018-.004.024-.019.017-.045-.006-.026-.017-.037-.035-.033zm-.987-.35c.01.044.03.062.061.055l.163-.037c.026-.006.034-.03.024-.074-.006-.026-.029-.046-.069-.06-.04-.014-.068-.019-.085-.015l-.027.006-.07.113.003.013zm.674-.47c-.02-.005-.027 0-.023.018s.015.024.032.02c.018-.004.025-.012.022-.025-.003-.013-.013-.018-.03-.014zm-.226-.21c.01.044.029.067.057.07l.073-.1-.13.03zm-.366-.094c-.01-.006-.012.008-.004.043.008.034.016.046.023.036.017-.004.024-.015.02-.032-.004-.018-.017-.033-.039-.047z"/>
            <rect width="22.83" height="2.008" x="22.428" y="26.549" fill="#EAECEE" rx="1.004"/>
            <rect width="31.211" height="2.008" x="18.235" y="21.891" fill="#EAECEE" rx="1.004"/>
            <rect width="50.446" height="2.008" x="8.82" y="36.79" fill="#EAECEE" rx="1.004"/>
            <rect width="50.446" height="2.008" x="8.82" y="41.353" fill="#EAECEE" rx="1.004"/>
            <rect width="50.446" height="2.008" x="8.82" y="45.918" fill="#EAECEE" rx="1.004"/>
            <rect width="50.446" height="2.01" x="8.82" y="50.483" fill="#EAECEE" rx="1.005"/>
            <rect width="50.446" height="2.008" x="8.82" y="55.055" fill="#EAECEE" rx="1.004"/>
            <rect width="50.446" height="2.008" x="8.82" y="59.62" fill="#EAECEE" rx="1.004"/>
            <rect width="50.446" height="2.006" x="8.82" y="64.185" fill="#EAECEE" rx="1.003"/>
            <rect width="50.446" height="2.01" x="8.82" y="68.75" fill="#EAECEE" rx="1.005"/>
            <rect width="50.446" height="2.008" x="8.82" y="73.29" fill="#EAECEE" rx="1.004"/>
            <rect width="50.446" height="2.008" x="8.82" y="77.856" fill="#EAECEE" rx="1.004"/>
            <rect width="50.446" height="2.01" x="8.82" y="82.421" fill="#EAECEE" rx="1.005"/>
        </g>
        <path fill="#023757" fill-rule="nonzero" d="M108.5 79.078v-.001a1.03 1.03 0 0 1 .304-.146 1.076 1.076 0 0 1 .351-.047c.032 0 .063-.002.096.001.016.002.032-.001.048 0 .1.015.195.043.283.082.01.003.016.01.026.015.096.045.18.105.256.175.01.01.026.014.036.024l4.7 4.75c.359.363.317.907-.096 1.214a1.101 1.101 0 0 1-1.399-.104l-2.534-2.56c.142 3.442-.88 6.728-.929 6.883-2.104 7.609-8.343 13.168-15.428 14.579a17.69 17.69 0 0 1-7.327-.068c-.482-.107-.796-.5-.758-.916a.817.817 0 0 1 .023-.133c.128-.46.662-.738 1.195-.62 2.283.51 4.598.472 6.816-.028 6.21-1.402 11.666-6.434 13.557-13.271.014-.042 1.071-3.437.856-6.736l-2.463 3.416c-.289.4-.9.515-1.365.258-.467-.257-.608-.79-.322-1.191l3.882-5.385a.922.922 0 0 1 .191-.191z"/>
        <g transform="translate(98 41)">
            <circle cx="12" cy="12" r="12" fill="#1B99E5"/>
            <circle cx="12" cy="12" r="11" fill="#F5FAFE"/>
            <path fill="#1974AB" d="M12 19.385c-2.545 0-4.615-1.657-4.615-3.693h3.077c0 .678.69 1.231 1.538 1.231.848 0 1.538-.553 1.538-1.23v-1.231c0-.679-.69-1.231-1.538-1.231-2.545 0-4.615-1.657-4.615-3.693v-1.23c0-2.036 2.07-3.693 4.615-3.693 2.545 0 4.615 1.657 4.615 3.693h-3.077c0-.678-.69-1.231-1.538-1.231-.848 0-1.538.553-1.538 1.23v1.231c0 .679.69 1.231 1.538 1.231 2.545 0 4.615 1.657 4.615 3.693v1.23c0 2.036-2.07 3.693-4.615 3.693z"/>
            <path fill="#1974AB" d="M11.134 3.284h2.308v2.077h-2.308zM11.134 18.977h2.308v2.076h-2.308z"/>
        </g>
        <g transform="translate(89 54)">
            <circle cx="12" cy="12" r="12" fill="#1B99E5"/>
            <circle cx="12" cy="12" r="11" fill="#F5FAFE"/>
            <path fill="#1974AB" d="M12 19.385c-2.545 0-4.615-1.657-4.615-3.693h3.077c0 .678.69 1.231 1.538 1.231.848 0 1.538-.553 1.538-1.23v-1.231c0-.679-.69-1.231-1.538-1.231-2.545 0-4.615-1.657-4.615-3.693v-1.23c0-2.036 2.07-3.693 4.615-3.693 2.545 0 4.615 1.657 4.615 3.693h-3.077c0-.678-.69-1.231-1.538-1.231-.848 0-1.538.553-1.538 1.23v1.231c0 .679.69 1.231 1.538 1.231 2.545 0 4.615 1.657 4.615 3.693v1.23c0 2.036-2.07 3.693-4.615 3.693z"/>
            <path fill="#1974AB" d="M11.134 3.284h2.308v2.077h-2.308zM11.134 18.977h2.308v2.076h-2.308z"/>
        </g>
        <g transform="translate(106 54)">
            <circle cx="12" cy="12" r="12" fill="#1B99E5"/>
            <circle cx="12" cy="12" r="11" fill="#F5FAFE"/>
            <path fill="#1974AB" d="M12 19.385c-2.545 0-4.615-1.657-4.615-3.693h3.077c0 .678.69 1.231 1.538 1.231.848 0 1.538-.553 1.538-1.23v-1.231c0-.679-.69-1.231-1.538-1.231-2.545 0-4.615-1.657-4.615-3.693v-1.23c0-2.036 2.07-3.693 4.615-3.693 2.545 0 4.615 1.657 4.615 3.693h-3.077c0-.678-.69-1.231-1.538-1.231-.848 0-1.538.553-1.538 1.23v1.231c0 .679.69 1.231 1.538 1.231 2.545 0 4.615 1.657 4.615 3.693v1.23c0 2.036-2.07 3.693-4.615 3.693z"/>
            <path fill="#1974AB" d="M11.134 3.284h2.308v2.077h-2.308zM11.134 18.977h2.308v2.076h-2.308z"/>
        </g>
    </g>
</svg>
