<svg xmlns="http://www.w3.org/2000/svg" width="22" height="22" viewBox="0 0 22 22">
    <g fill="#0F80DE" fill-rule="nonzero">
        <path d="M10.483 13.22L6.266 8.527 5.071 9.601l5.44 6.053 11.53-13.43-1.218-1.046-10.34 12.042zM6.134 9.583l-.015.277.072.08.292-.264-.07-.079-.279-.014zm4.216 4.985l.297-.003.112-.13-.265-.296-.26.301.116.128zM21 2.508l-.022-.278-.278.021-.069.08.3.257.068-.08z"/>
        <path d="M19.282 8.204c.306.897.46 1.838.46 2.796 0 4.787-3.895 8.683-8.683 8.683-4.787 0-8.683-3.896-8.683-8.683s3.896-8.683 8.683-8.683a8.67 8.67 0 0 1 4.432 1.214l.43.256.821-1.38-.43-.256A10.278 10.278 0 0 0 11.06.711C5.385.71.769 5.326.769 11c0 5.674 4.616 10.29 10.29 10.29 5.674 0 10.29-4.616 10.29-10.29a10.28 10.28 0 0 0-.546-3.313l-.16-.473-1.522.516.161.474zm.696.188l.026.094.374-.126a9.622 9.622 0 0 0-.032-.11l-.24-.118-.128.26zm-4.528-5.58l.282-.072-.065-.259a9.594 9.594 0 0 0-.101-.053l-.202.339.086.045z"/>
    </g>
</svg>
