<?xml version="1.0" encoding="UTF-8"?>
<svg width="30px" height="33px" viewBox="0 0 30 33" version="1.1" xmlns="http://www.w3.org/2000/svg" xmlns:xlink="http://www.w3.org/1999/xlink">
    <!-- Generator: Sketch 52.3 (67297) - http://www.bohemiancoding.com/sketch -->
    <title>Combined Shape</title>
    <desc>Created with Sketch.</desc>
    <g id="Page-1" stroke="none" stroke-width="1" fill="none" fill-rule="evenodd">
        <g id="3-screen-owl" transform="translate(-275.000000, -573.000000)" fill="#00466F">
            <g id="Group-8" transform="translate(0.000000, 542.000000)">
                <g id="Group-18" transform="translate(275.000000, 25.000000)">
                    <g id="1">
                        <path d="M10.240012,17.2324323 C11.4836984,17.2324323 12.4925829,18.2464666 12.4925829,19.4975727 C12.4925829,20.7486789 11.4836984,21.7627132 10.240012,21.7627132 C8.99632568,21.7627132 7.9874412,20.7486789 7.9874412,19.4975727 C7.9874412,18.2464666 8.99632568,17.2324323 10.240012,17.2324323 Z M19.3075642,17.2324323 C20.5512506,17.2324323 21.560135,18.2464666 21.560135,19.4975727 C21.560135,20.7486789 20.5512506,21.7627132 19.3075642,21.7627132 C18.0638778,21.7627132 17.0549933,20.7486789 17.0549933,19.4975727 C17.0549933,18.2464666 18.0638778,17.2324323 19.3075642,17.2324323 Z M9.19116343,8.35917655 L20.808872,8.35917655 C21.0763004,8.04313526 21.4992006,7.64923731 22.0857968,7.25929941 C23.1240078,6.56915209 24.377058,6.11871961 25.847435,6.02023239 L26.149497,6 L26.29642,6.2661652 C26.3275376,6.32253762 26.3835173,6.42811567 26.4608008,6.58044456 C26.5881745,6.83150334 26.7297143,7.12437214 26.8818592,7.45660127 C27.3152438,8.40295533 27.7481477,9.47710577 28.1520211,10.6595324 C29.4491331,14.4571073 30.1583012,18.4725808 29.9700021,22.4980426 C29.5756527,30.9354769 23.0832586,38.3303673 15.7545155,38.9537389 L15.7545155,39 L15.2772759,39 C15.2228582,39 15.1819079,38.9988517 15.0930226,38.9955207 C15.0390302,38.9935029 15.0174986,38.9927864 15.0098376,38.9922196 C14.9824898,38.9927866 14.960971,38.9935028 14.907022,38.9955202 L14.878898,38.9965653 C14.8147196,38.998906 14.770458,39 14.7232007,39 L14.2459611,39 L14.2459611,38.9537413 C6.91683148,38.3303905 0.424351273,30.9355759 0.0299981772,22.4980613 C-0.158301797,18.4725808 0.550866267,14.4571073 1.84797823,10.6595324 C2.25185169,9.47710577 2.68475558,8.40295533 3.11814017,7.45660127 C3.2702851,7.12437214 3.41182492,6.83150334 3.53919858,6.58044456 C3.61648203,6.42811567 3.6724618,6.32253762 3.70357935,6.2661652 L3.85050086,6.0000028 L4.15255982,6.02023209 C5.62313758,6.11871862 6.87624545,6.56915256 7.91440231,7.25930701 C8.50094802,7.64923569 8.92378464,8.04312765 9.19116343,8.35917655 Z M25.6044124,7.00448747 C24.4387784,7.1289405 23.4447476,7.50650634 22.6121509,8.05997227 C22.2529596,8.29874346 21.9498535,8.5537195 21.7019787,8.80707074 C21.5575799,8.9546599 21.466324,9.0648573 21.4273501,9.11933503 L21.2845209,9.31898182 L8.7154335,9.31898182 L8.57260765,9.11927683 C8.53365263,9.06480833 8.44242689,8.95461983 8.29806299,8.807039 C8.05024344,8.55369717 7.74718446,8.29872938 7.3880254,8.05996467 C6.55547952,7.50649797 5.56140204,7.12893122 4.39558929,7.00448295 C4.39355111,7.00849327 4.39149516,7.01254205 4.38942155,7.01662924 C4.26776067,7.25642788 4.13180486,7.53774247 3.98510834,7.85807423 C3.5646602,8.77617982 3.14373137,9.82061692 2.7506943,10.9713177 C1.4899546,14.662405 0.801381187,18.5612668 0.983424047,22.4529826 C1.36372711,30.5898848 7.74647495,37.7005595 14.7451691,38.0248667 L14.9416032,38.0339691 C14.962361,38.0333835 14.9827999,38.0329749 15.0098376,38.0326183 C15.0266651,38.0329672 15.04189,38.033366 15.0596902,38.0339318 L15.255306,38.0248667 C22.2535988,37.7005565 28.6362763,30.5897976 29.0165762,22.4529638 C29.1986182,18.5612668 28.5100448,14.662405 27.2493051,10.9713177 C26.856268,9.82061692 26.4353392,8.77617982 26.014891,7.85807423 C25.8681945,7.53774247 25.7322387,7.25642788 25.6105778,7.01662924 C25.608505,7.01254359 25.6064498,7.00849632 25.6044124,7.00448747 Z M14.885844,24.0326526 C16.3218579,24.4583263 15.6351101,26.7920928 15.1941408,27.79173 C15.0547868,28.107026 14.885844,28.111825 14.885844,28.111825 C14.885844,28.111825 14.7169012,28.107026 14.5775472,27.79173 C14.1365778,26.7920928 13.4498301,24.4583263 14.885844,24.0326526 Z M10.240012,16.2183021 C8.44177328,16.2183021 6.97903395,17.6892036 6.97903395,19.4974768 C6.97903395,21.3062298 8.44177328,22.7771314 10.240012,22.7771314 C12.0382508,22.7771314 13.5009901,21.3062298 13.5009901,19.4974768 C13.5009901,17.6892036 12.0382508,16.2183021 10.240012,16.2183021 Z M10.240012,23.7369366 C7.91537802,23.7369366 6.02455478,21.8350825 6.02455478,19.4974768 C6.02455478,17.1603509 7.91537802,15.2584968 10.240012,15.2584968 C12.5646461,15.2584968 14.4554693,17.1603509 14.4554693,19.4974768 C14.4554693,21.8350825 12.5646461,23.7369366 10.240012,23.7369366 Z M19.3075642,16.2183021 C17.5093254,16.2183021 16.0465861,17.6892036 16.0465861,19.4974768 C16.0465861,21.3062298 17.5093254,22.7771314 19.3075642,22.7771314 C21.105803,22.7771314 22.5685423,21.3062298 22.5685423,19.4974768 C22.5685423,17.6892036 21.105803,16.2183021 19.3075642,16.2183021 Z M19.3075642,23.7369366 C16.9829302,23.7369366 15.0921069,21.8350825 15.0921069,19.4974768 C15.0921069,17.1603509 16.9829302,15.2584968 19.3075642,15.2584968 C21.6321982,15.2584968 23.5230215,17.1603509 23.5230215,19.4974768 C23.5230215,21.8350825 21.6321982,23.7369366 19.3075642,23.7369366 Z M20.1543781,12.0233292 C20.9327559,12.0233292 21.775561,12.1298675 22.6670445,12.3947738 C27.1917531,13.7399409 29.1575029,21.4649336 24.2180732,26.4319259 C19.6862061,30.9895612 14.8722904,33.790273 14.8722904,33.790273 C14.8722904,33.790273 10.0722146,30.9895612 5.53987025,26.4319259 C0.600440529,21.4649336 2.56666763,13.7399409 7.09089891,12.3947738 C7.9828597,12.1298675 8.82518757,12.0233292 9.60404257,12.0233292 C12.7304391,12.0233292 14.8202713,13.7404208 14.8789717,13.7888909 C14.9376722,13.7404208 17.0275043,12.0233292 20.1543781,12.0233292 Z M20.1543781,12.9831344 C17.3916382,12.9831344 15.5051101,14.5140238 15.4864977,14.5293807 L14.8789717,15.030879 L14.2714457,14.5293807 C14.2528334,14.5140238 12.3658281,12.9831344 9.60404257,12.9831344 C8.85716262,12.9831344 8.10312407,13.0949517 7.36149376,13.315227 C5.70451791,13.8080871 4.39258629,15.3788084 3.85139659,17.5172545 C3.11215247,20.442741 3.99552295,23.5213164 6.21516427,25.7528636 C9.78253018,29.3406157 13.5632222,31.8442678 14.8727676,32.6668209 C16.1851765,31.8447477 19.9754133,29.3410956 23.5432564,25.7528636 C25.7624205,23.5213164 26.6462682,20.442741 25.9065469,17.5172545 C25.3658344,15.3788084 24.0534255,13.8080871 22.3964497,13.315227 C21.6552966,13.0949517 20.9007808,12.9831344 20.1543781,12.9831344 Z" id="Combined-Shape"></path>
                    </g>
                </g>
            </g>
        </g>
    </g>
</svg>