<svg id="avatars" xmlns="http://www.w3.org/2000/svg" viewBox="0 0 300 300"><defs><style>.cls-1{fill:#7ac4ed;}.cls-2{fill:#9bc9dd;}.cls-3{fill:#a8cfe5;}.cls-4{fill:#2579bf;}.cls-5{fill:#fff;}.cls-6{fill:#0062b2;}</style></defs><title>shutterstock_209116954 [Converted]</title><ellipse class="cls-1" cx="150" cy="150" rx="150" ry="150.05" transform="translate(-0.48 0.48) rotate(-0.18)"/><path class="cls-2" d="M170.09,233.25l.24.11A11.27,11.27,0,0,0,166.8,232a57.36,57.36,0,0,0,2.45,6.83A15.8,15.8,0,0,0,170.09,233.25Z"/><path class="cls-3" d="M130.07,260.61l19.57-9.37c-7.24-.72-11.81-3.11-14.69-5.92a16,16,0,0,1-4-6.51,15.46,15.46,0,0,1-.83-5.54v0a26.05,26.05,0,0,0-6.25,3.78l-.42.36C112,247.72,130.07,260.61,130.07,260.61Z"/><path class="cls-2" d="M130.9,238.81a58,58,0,0,0,2.43-6.76,11.48,11.48,0,0,0-3.26,1.22A15.46,15.46,0,0,0,130.9,238.81Z"/><path class="cls-3" d="M178,238.69c-.12-.14-.23-.28-.36-.41a23,23,0,0,0-7.32-4.92l-.24-.11a15.8,15.8,0,0,1-.84,5.59c-1.58,4.77-6,11-18.46,12.37h0l-.27,0,19.57,9.37S186.69,248.77,178,238.69Z"/><path class="cls-4" d="M130.07,260.61s-18.1-12.89-6.67-23.22l.42-.36h0c-6.67,5-18.63,13.27-27,23.25-6.45,7.66-7.41,19.07-7.22,27.05a150.28,150.28,0,0,0,120.17.39c.22-8-.66-19.66-7.22-27.44-7.69-9.13-17.57-16.55-24.49-21.59,8.68,10.08-7.92,21.92-7.92,21.92l-19.57-9.37-.11,0-.77,0Z"/><path class="cls-5" d="M208.06,129c-.1-.93-.22-1.86-.36-2.78-6.5-5.67-20.76-13.48-23.68-16.26-4.22-4-9.77-8.24-13-13.06-1.35,1-2.73,1.89-4.13,2.78-9.41,5.94-19.78,10.28-29.48,16.33-11.79,7.36-24.34,14.73-34,24.88A66.47,66.47,0,0,0,95,152.38q-1.4,2.33-2.73,4.73l.08,1c0,.15,0,.31.05.46,3,21.54,29.05,38.17,45.09,46.47-.3,5.93-1.25,17.07-4.19,27.05a58,58,0,0,1-2.43,6.76,16.16,16.16,0,0,0,6.51,8.5l.1.06c.19.13.39.26.6.38l.16.09c.18.12.38.23.58.34l.19.1.61.31.19.1.71.32.14.06c.58.25,1.19.49,1.83.7l.24.08.73.23.36.1.67.18.41.1.67.15.43.09.71.14.44.07q.4.08.81.12l.4.06,1.25.15.77,0h.38c12.43-1.32,16.88-7.6,18.46-12.37A57.36,57.36,0,0,1,166.8,232c-2.93-10-3.88-21.09-4.19-27,15.93-8.24,41.75-24.69,45-46l.12-.93.09-4a12.61,12.61,0,0,0,.2-25Z"/><path class="cls-6" d="M208.48,27.87c-18.31-7.31-38.63.49-45.39,17.42a30.7,30.7,0,0,0-1.55,5.18,66.22,66.22,0,0,0-75.8,80.69,118.79,118.79,0,0,0-4.44,26.72,67.59,67.59,0,0,0,1.54,15.6c3.32-5,6.31-10.75,9.46-16.37q1.33-2.4,2.73-4.73h0c.51-.84,1-1.66,1.55-2.48l.6-.94.57-.85c.26-.39.53-.77.79-1.15.14-.2.28-.41.43-.61.4-.56.81-1.1,1.22-1.64l.41-.52c.32-.41.65-.81,1-1.2l.42-.5c.46-.53.93-1.06,1.4-1.56,9.67-10.15,22.22-17.52,34-24.88,9.7-6,20.07-10.39,29.48-16.33,1.4-.89,2.78-1.81,4.13-2.78,3.23,4.82,8.78,9,13,13.06,2.92,2.78,17.18,10.59,23.68,16.26a56.44,56.44,0,0,1,.6,5.86h.07L208,147.6a66.29,66.29,0,0,0,2.9-58,31.77,31.77,0,0,0,18.48-17.84C236.15,54.84,226.78,35.18,208.48,27.87Z"/></svg>