<svg xmlns="http://www.w3.org/2000/svg" width="74" height="9" viewBox="0 0 74 9">
    <g fill="#FFD30B" fill-rule="evenodd">
        <path fill-rule="nonzero" d="M69 7.5l-2.939 1.545.561-3.272-2.377-2.318 3.286-.478L69 0l1.47 2.977 3.285.478-2.377 2.318.56 3.272L69 7.5zm0-.565l2.275 1.196-.435-2.533 1.84-1.794-2.543-.37L69 1.13l-1.137 2.304-2.544.37 1.84 1.794-.434 2.533L69 6.935z"/>
        <path d="M68.636 7.691l-2.575 1.354.561-3.272-2.377-2.318 3.286-.478L68.7.607zM53 7.5l-2.939 1.545.561-3.272-2.377-2.318 3.286-.478L53 0l1.47 2.977 3.285.478-2.377 2.318.56 3.272zM37 7.5l-2.939 1.545.561-3.272-2.377-2.318 3.286-.478L37 0l1.47 2.977 3.285.478-2.377 2.318.56 3.272zM21 7.5l-2.939 1.545.561-3.272-2.377-2.318 3.286-.478L21 0l1.47 2.977 3.285.478-2.377 2.318.56 3.272zM5 7.5L2.061 9.045l.561-3.272L.245 3.455l3.286-.478L5 0l1.47 2.977 3.285.478-2.377 2.318.56 3.272z"/>
    </g>
</svg>
