<svg xmlns="http://www.w3.org/2000/svg" width="150" height="24" viewBox="0 0 150 24">
    <g fill="#5790FF" fill-rule="evenodd">
        <path d="M137 19.5l-7.641 4.017 1.46-8.508-6.183-6.026 8.543-1.242L137 0l3.82 7.741 8.544 1.242-6.182 6.026 1.46 8.508zM106 19.5l-7.641 4.017 1.46-8.508-6.183-6.026 8.543-1.242L106 0l3.82 7.741 8.544 1.242-6.182 6.026 1.46 8.508zM75 19.5l-7.641 4.017 1.46-8.508-6.183-6.026L71.18 7.74 75 0l3.82 7.741 8.544 1.242-6.182 6.026 1.46 8.508zM44 19.5l-7.641 4.017 1.46-8.508-6.183-6.026L40.18 7.74 44 0l3.82 7.741 8.544 1.242-6.182 6.026 1.46 8.508zM13 19.5l-7.641 4.017 1.46-8.508L.635 8.983 9.18 7.74 13 0l3.82 7.741 8.544 1.242-6.182 6.026 1.46 8.508z"/>
    </g>
</svg>
